<svg clip-rule="evenodd" fill-rule="evenodd" image-rendering="optimizeQuality" shape-rendering="geometricPrecision" text-rendering="geometricPrecision" version="1.1" viewBox="0 0 346.89 256" xmlns="http://www.w3.org/2000/svg" xmlns:osb="http://www.openswatchbook.org/uri/2009/osb" xmlns:xlink="http://www.w3.org/1999/xlink">
 <defs>
  <linearGradient id="rewardc">
   <stop stop-color="#0000b3" offset="0"/>
   <stop offset="1"/>
  </linearGradient>
  <linearGradient id="rewardb">
   <stop offset="0"/>
   <stop stop-color="#0000b3" offset="1"/>
  </linearGradient>
  <clipPath id="rewardh">
   <path d="m548.94 511.04c6.072-15.632 19.931-26.314 27.554-41.029 4.074-6.908 5.094-15.349 3.259-23.134-3.321-10.278-11.519-19.678-22.392-21.967-6.695-0.666-14.896 2.707-16.408 10.488-0.818 4.448 2.605 9.984 6.294 9.4 3.618-0.524 3.307-4.471 1.279-6.798 3.875 2.754 7.812 5.617 6.051 11.972-2.209 5.559-8.511 6.566-14.048 4.992-10.156-3.62-12.931-15.643-12.959-25.204 0.877-9.126 4.337-17.952 3.801-27.24 0.313-13.545-1.271-28.996-11.557-38.982-5.68-4.568-12.618-9.772-20.403-8.017-4.114 0.445-7.12 4.217-8.2 7.988-0.947 3.893 1.947 7.453 4.276 10.217 7.786 7.008 17.791 11.811 23.399 21.018 3.299 6.858 2.37 15.138-0.755 21.876-5.851 10.064-14.817 17.881-24.367 24.305 4.972-7.402 11.244-14.351 13.363-23.248 1.694-5.536 1.381-12.232-2.34-16.902-12.719-15.189-33.302-21.412-44.942-37.7-4.719-6.787-4.498-15.562-2.38-23.227 2.32-7.603 15.685-12.527 12.133-19.382-3.375-3.605-10.217-1.162-13.938 2.387-4.79 4.359-5.708 11.348-5.487 17.469 1.362 14.967 6.092 30.076 2.33 45.082-1.402 9.178-8.633 15.432-15.057 21.342 1.714-4.356 3.791-8.574 5.284-13.021 5.023-14.715-2.753-29.469-6.445-43.568-3.731-11.206-3.67-23.47-0.262-34.756 2.3-7.271 6.868-13.475 10.529-20.09-12.152 5.94-20.12 17.953-24.457 30.408-4.074 11.558-4.115 23.834-3.429 35.894-3.6-7.633-6.192-16.077-5.254-24.619 0.544-14.926 7.625-28.481 14.12-41.571-7.08 3.993-13.515 8.996-19.717 14.2 6.031-16.189 21.542-25.386 34.623-35.27 15.662-10.841 29.187-25.667 36.085-43.61 6.093-18.284-1.168-37.205-3.862-55.4 12.868-3.901 22.39-13.714 30.045-24.356 8.452 10.035 17.255 21.099 30.68 24.286-3.198 15.675-8.028 31.377-5.818 47.584 2.812 18.628 16.246 33.615 30.043 45.445 14.836 12.969 34.918 22.037 42.601 41.461-6.192-4.982-12.244-10.267-19.435-13.786 4.953 11.073 10.833 21.924 12.889 34.038 1.05 10.682 0.031 21.744-4.497 31.548 1.09-17.781-0.868-36.924-11.64-51.719-3.943-6.19-10.266-10.206-16.076-14.453 5.82 11.378 12.165 23.318 11.236 36.531 0.504 16.813-8.795 32.685-5.365 49.61 2.157 8.381 9.036 14.039 14.452 20.312-12.011-2.692-23.033-11.265-26.545-23.377-4.79-14.929 3.208-30.621-0.766-45.568-2.643-8.985-14.735-11.779-22.068-6.948-4.953 3.308-5.193 10.508-2.36 15.3 1.945 3.156 5.598 4.598 9.258 3.469 2.955-1.329 2.898-3.86 1.328-5.52-1.039-1.247-2.459-1.767-5.654-2.265 2.833-1.089 6.214-2.603 9.017-0.575 3.066 2.571 4.326 6.786 4.346 10.679-0.504 11.922-6.222 24.266-1.623 36.026 11.416 17.861 31.748 27.704 43.034 45.727 7.453 10.853 5.83 25.055 3.026 37.186-5.295 17.185-21.381 27.189-33.473 39.191-8.11 7.515-11.438 18.235-13.041 28.815-2.189-7.503-2.008-15.591 0.685-22.944m-27.039-258.5c4.942 12.063 16.905 20.572 18.406 34.17 0.746-7.465 0.727-15.503-3.277-22.098-5.466-8.583-10.963-17.146-16.086-25.94-0.374 4.66-0.938 9.42 0.957 13.868m-49.842 13.08c-3.298 6.152-2.956 13.383-3.48 20.12 3.188-10.357 10.369-18.567 16.489-27.25 4.085-6.041 3.44-13.665 3.916-20.595-5.165 9.533-11.549 18.325-16.925 27.725"/>
  </clipPath>
  <linearGradient id="rewardf" x1="1104.6" x2="2856.9" y1="-1935" y2="-1935" gradientUnits="userSpaceOnUse" xlink:href="#rewardb"/>
  <linearGradient id="rewarde" x1="1119" x2="2842.5" y1="-1935" y2="-1935" gradientUnits="userSpaceOnUse" xlink:href="#rewardb"/>
  <linearGradient id="rewardd" x1="-1849.9" x2="1902.7" y1="-1818.6" y2="-1818.6" gradientUnits="userSpaceOnUse" xlink:href="#rewardb"/>
  <linearGradient id="rewarda" x1="407.81" x2="602.21" y1="342.49" y2="342.49" gradientUnits="userSpaceOnUse" xlink:href="#rewardb"/>
  <linearGradient id="rewardg" x1="11494" x2="18297" y1="-1539.7" y2="-1539.7" gradientUnits="userSpaceOnUse" xlink:href="#rewardc"/>
  <linearGradient id="rewardj" x1="12763" x2="16788" y1="-4703.5" y2="-4703.5" gradientUnits="userSpaceOnUse" xlink:href="#rewardc"/>
  <linearGradient id="rewardi" x1="11494" x2="18297" y1="-1539.7" y2="-1539.7" gradientTransform="translate(109.02)" gradientUnits="userSpaceOnUse" xlink:href="#rewardc"/>
 </defs>
 <g transform="translate(-54.516 -53.84)">
  <g transform="matrix(.025456 0 0 .025456 -77.161 327.64)">
   <g transform="matrix(2.9404 0 0 2.9404 -9292.8 -4799.4)">
    <g font-family="'Humaira Demo'" font-size="2452.8px" font-weight="400" letter-spacing="0" word-spacing="0">
     <g transform="matrix(.66064 0 0 .66064 6141.7 861.25)" stroke-linecap="round" stroke-linejoin="round" stroke-opacity=".987" stroke-width="27.254">
      <path d="m724.52-3382.7c2.453 2.453 2.453 4.906 0 0zm0 0c2.453 4.906 2.453 2.453 0 0zm1128.3 2192.8c-2.453-4.906-61.321-39.246-66.227-24.529-19.622 41.698-53.962 80.944-85.849 112.83-29.434 31.888-63.774 56.416-103.02 71.133-76.038 31.887-156.98 39.245-235.47 34.34h-17.17l-2.453-2.453c-22.076 0-39.245-4.906-56.415-4.906-36.793-2.453-71.132-7.358-107.92-9.811-71.132-7.359-142.26-9.812-213.4-17.17h-2.453s0-31.887 2.453-68.68c0 0 7.359-44.15 14.717-98.113 24.529-228.11 39.246-453.78 49.057-681.89 12.264-237.93 12.264-478.3 12.264-716.23 0-117.74 0-230.57-22.075-345.85-14.717-90.755-46.604-179.06-93.208-257.55-39.246-76.038-95.66-142.26-159.44-196.23-95.66-71.133-206.04-110.38-321.32-103.02-156.98 7.36-309.06 78.491-426.79 181.51-112.83 100.57-198.68 230.57-262.45 370.38-51.284 108.06-84.788 224.33-107.66 342.68l107.66 17.89c56.415-233.02 166.79-470.94 348.3-637.74 83.396-78.49 183.96-139.81 296.79-171.7 71.132-19.623 147.17-31.887 218.3-19.623 17.17 2.453 34.34 2.453 51.51 9.811 7.358 0 14.717 2.453 22.075 7.359h2.453c7.359 2.453 14.717 7.358 19.623 7.358v2.453h4.906v4.906h4.905l2.453 2.453 4.906 2.453c2.453 4.905 9.811 12.264 17.17 19.622v2.453c7.358 4.906 9.811 7.359 14.717 14.717 2.452 7.359 14.717 22.076 24.528 31.887l7.359 9.811c14.717 24.529 24.528 51.51 34.34 76.038 29.433 63.774 44.15 130 51.509 198.68 12.264 83.396 9.811 174.15 9.811 262.45-4.906 90.755-4.906 183.96-7.358 279.62-9.812 363.02-29.434 728.49-63.774 1094-7.359 39.245-9.811 80.943-14.717 120.19-9.811 73.585-19.623 156.98-19.623 156.98-4.905 34.34-39.245 63.774-76.038 58.868 0 0-90.755-7.358-169.24-14.717-284.53-17.17-569.06-31.887-848.68-31.887-284.53 0-569.06 12.265-851.13 39.246-110.38 12.264-220.76 24.528-331.13 56.415-103.02 29.434-208.49 71.132-294.34 134.91-22.076 19.623-41.698 36.793-63.774 58.868-14.717 12.264 88.302 90.755 112.83 76.038 306.6-183.96 679.44-215.85 1025.3-161.89 90.755 14.717 181.51 31.887 267.36 56.415 22.075 2.453 41.697 9.811 63.773 17.17 9.811 0 22.076 4.906 34.34 7.358 4.905 4.906 7.358 4.906 14.717 7.359 4.905 0 7.358 0 12.264 2.453 41.698 12.264 88.302 29.434 130 44.15 80.945 26.983 159.44 63.776 240.38 95.662 4.906 2.453 7.359 2.453 12.264 7.359 9.812 2.453 17.17 7.358 24.529 9.811 22.075 9.812 41.698 22.076 63.773 29.434 17.17 9.812 34.34 19.623 53.963 26.982 7.358 4.905 31.887 17.17 9.811 7.358 9.812 7.359 22.076 9.811 31.887 17.17 17.17 12.264 36.793 22.075 53.962 31.887 7.359 4.905 9.812 7.358 14.717 12.264 9.812 7.358 19.623 12.264 26.982 19.623h4.905l2.453 4.905h2.453c7.359 7.359 19.623 14.717 26.981 22.076l9.812 9.811h2.452l14.717 14.717 9.812 7.359 7.358 9.811 14.717 14.717c4.906 2.453 12.264 9.811 14.717 12.264 14.717 19.623 29.434 36.793 41.699 51.51v2.453h4.905c2.453 7.358 7.359 14.717 9.812 17.17 7.358 12.264 14.717 22.075 22.075 29.434 9.811 22.075 24.528 41.698 34.34 63.773 7.358 14.717 22.075 24.529 36.792 34.34 14.717 19.623 31.887 29.434 51.51 44.151 14.717 7.359 29.434 14.717 44.15 17.17 2.454 4.906 26.982 14.717 34.34 4.906 68.68-147.17 115.28-301.7 149.62-458.68 24.528-117.74 53.962-284.53 53.962-284.53 7.359-34.34 39.245-63.774 73.585-58.868 0 0 247.74 24.528 404.72 36.793 80.944 12.264 166.79 14.717 247.74-9.812 85.85-22.075 166.79-66.226 210.94-144.72 9.812-22.076 17.17-46.604 26.982-71.132 7.358-17.17-34.34-46.604-49.057-56.416zm-1128.3-2192.8m-372.83 2884.5c2.452 0 2.452 2.453 7.358 2.453-4.906 0-4.906-2.453-7.359-2.453zm284.53 58.868-12.264 31.887c-12.264 31.887-44.151 39.246-71.132 14.717 0 0-122.64-120.19-223.21-183.96-161.89-105.47-336.04-188.87-517.55-255.1-95.66-36.793-183.96-68.68-272.26-93.208-88.302-24.529-179.06-46.604-269.81-63.774l-31.886-2.453c-31.887-4.905-31.887-12.264 7.358-12.264 0 0 282.08-9.811 461.13-9.811 282.08 0 571.51 9.811 853.59 31.887 68.68 4.905 134.91 9.81 134.91 9.81 39.246 4.907 61.321 36.793 53.963 71.133 0 0-56.416 291.89-112.83 461.13z"/>
     </g>
     <g transform="matrix(.66064 0 0 .66064 6159.7 874.75)" fill="url(#rewardd)" stroke-linecap="round" stroke-linejoin="round" stroke-width="27.254">
      <path d="m724.52-3382.7c2.453 2.453 2.453 4.906 0 0zm0 0c2.453 4.906 2.453 2.453 0 0zm1128.3 2192.8c-2.453-4.906-61.321-39.246-66.227-24.529-19.622 41.698-53.962 80.944-85.849 112.83-29.434 31.888-63.774 56.416-103.02 71.133-76.038 31.887-156.98 39.245-235.47 34.34h-17.17l-2.453-2.453c-22.076 0-39.245-4.906-56.415-4.906-36.793-2.453-71.132-7.358-107.92-9.811-71.132-7.359-142.26-9.812-213.4-17.17h-2.453s0-31.887 2.453-68.68c0 0 7.359-44.15 14.717-98.113 24.529-228.11 39.246-453.78 49.057-681.89 12.264-237.93 12.264-478.3 12.264-716.23 0-117.74 0-230.57-22.075-345.85-14.717-90.755-46.604-179.06-93.208-257.55-39.246-76.038-95.66-142.26-159.44-196.23-95.66-71.133-206.04-110.38-321.32-103.02-156.98 7.36-309.06 78.491-426.79 181.51-112.83 100.57-198.68 230.57-262.45 370.38-51.284 108.06-84.788 224.33-107.66 342.68l107.66 17.89c56.415-233.02 166.79-470.94 348.3-637.74 83.396-78.49 183.96-139.81 296.79-171.7 71.132-19.623 147.17-31.887 218.3-19.623 17.17 2.453 34.34 2.453 51.51 9.811 7.358 0 14.717 2.453 22.075 7.359h2.453c7.359 2.453 14.717 7.358 19.623 7.358v2.453h4.906v4.906h4.905l2.453 2.453 4.906 2.453c2.453 4.905 9.811 12.264 17.17 19.622v2.453c7.358 4.906 9.811 7.359 14.717 14.717 2.452 7.359 14.717 22.076 24.528 31.887l7.359 9.811c14.717 24.529 24.528 51.51 34.34 76.038 29.433 63.774 44.15 130 51.509 198.68 12.264 83.396 9.811 174.15 9.811 262.45-4.906 90.755-4.906 183.96-7.358 279.62-9.812 363.02-29.434 728.49-63.774 1094-7.359 39.245-9.811 80.943-14.717 120.19-9.811 73.585-19.623 156.98-19.623 156.98-4.905 34.34-39.245 63.774-76.038 58.868 0 0-90.755-7.358-169.24-14.717-284.53-17.17-569.06-31.887-848.68-31.887-284.53 0-569.06 12.265-851.13 39.246-110.38 12.264-220.76 24.528-331.13 56.415-103.02 29.434-208.49 71.132-294.34 134.91-22.076 19.623-41.698 36.793-63.774 58.868-14.717 12.264 88.302 90.755 112.83 76.038 306.6-183.96 679.44-215.85 1025.3-161.89 90.755 14.717 181.51 31.887 267.36 56.415 22.075 2.453 41.697 9.811 63.773 17.17 9.811 0 22.076 4.906 34.34 7.358 4.905 4.906 7.358 4.906 14.717 7.359 4.905 0 7.358 0 12.264 2.453 41.698 12.264 88.302 29.434 130 44.15 80.945 26.983 159.44 63.776 240.38 95.662 4.906 2.453 7.359 2.453 12.264 7.359 9.812 2.453 17.17 7.358 24.529 9.811 22.075 9.812 41.698 22.076 63.773 29.434 17.17 9.812 34.34 19.623 53.963 26.982 7.358 4.905 31.887 17.17 9.811 7.358 9.812 7.359 22.076 9.811 31.887 17.17 17.17 12.264 36.793 22.075 53.962 31.887 7.359 4.905 9.812 7.358 14.717 12.264 9.812 7.358 19.623 12.264 26.982 19.623h4.905l2.453 4.905h2.453c7.359 7.359 19.623 14.717 26.981 22.076l9.812 9.811h2.452l14.717 14.717 9.812 7.359 7.358 9.811 14.717 14.717c4.906 2.453 12.264 9.811 14.717 12.264 14.717 19.623 29.434 36.793 41.699 51.51v2.453h4.905c2.453 7.358 7.359 14.717 9.812 17.17 7.358 12.264 14.717 22.075 22.075 29.434 9.811 22.075 24.528 41.698 34.34 63.773 7.358 14.717 22.075 24.529 36.792 34.34 14.717 19.623 31.887 29.434 51.51 44.151 14.717 7.359 29.434 14.717 44.15 17.17 2.454 4.906 26.982 14.717 34.34 4.906 68.68-147.17 115.28-301.7 149.62-458.68 24.528-117.74 53.962-284.53 53.962-284.53 7.359-34.34 39.245-63.774 73.585-58.868 0 0 247.74 24.528 404.72 36.793 80.944 12.264 166.79 14.717 247.74-9.812 85.85-22.075 186.06-73.453 230.22-151.94 9.811-22.075-2.102-39.377 7.71-63.905 7.358-17.17-34.34-46.604-49.057-56.416zm-1128.3-2192.8m-372.83 2884.5c2.452 0 2.452 2.453 7.358 2.453-4.906 0-4.906-2.453-7.359-2.453zm284.53 58.868-12.264 31.887c-12.264 31.887-44.151 39.246-71.132 14.717 0 0-122.64-120.19-223.21-183.96-161.89-105.47-336.04-188.87-517.55-255.1-95.66-36.793-183.96-68.68-272.26-93.208-88.302-24.529-179.06-46.604-269.81-63.774l-31.886-2.453c-31.887-4.905-31.887-12.264 7.358-12.264 0 0 282.08-9.811 461.13-9.811 282.08 0 571.51 9.811 853.59 31.887 68.68 4.905 134.91 9.81 134.91 9.81 39.246 4.907 61.321 36.793 53.963 71.133 0 0-56.416 291.89-112.83 461.13z" fill="url(#rewardd)" stroke-opacity=".987"/>
     </g>
     <g transform="matrix(.84533 0 0 .4655 5008.5 1498.6)" fill="url(#rewarde)" stroke-width="28.702">
      <path d="m2584.7-3411.4 1.84 1.839zm-515.09 2460.2 3.68 1.84zm755.47-2214.9c-68.725-222.23-288.19-365.27-503.35-422.67-264.61-68.858-549.13 24.734-746.53 207.22-323.88 292.26-518.52 750.34-437.98 1186.6 69.73 358.86 311.7 653.57 563.07 906.46 119.56 115.94 242.72 230.94 369.32 337.29 23.105 11.83 108.72 134.87 108.71 213.39 21.588 90.449-20.203 225.53-69.892 251.18-212.98 109.97-654.91-258.48-566.68-629.34-326.7 387.51 426.24 1010.4 677.6 823.01 89.024-66.382 163.58-358.22 57.938-513.62-98.046-156.31-264.6-245.16-387.45-378.47-208.23-193.66-399.66-412.13-517.45-672.78-127.64-287.57-123.5-630.19 9.582-916.06 133.63-284.09 338.6-563.64 641.65-678.93 169.18-56.383 368.49-65.502 528.28 17.198 14.082 9.23 42.965 24.666 69.6 63.468 118.86 159.42 121.22 398.85 3.333 558.14-6.992 120.22 163.24 9.675 179.4-66.035 43.916-87.982 48.969-192.46 20.85-286.06zm-787.36 2119.2-4.599-4.599zm583.78-2325.3-0.92-1.84z" fill="url(#rewarde)" stroke-linecap="round" stroke-linejoin="round" stroke-opacity=".987"/>
     </g>
     <g transform="matrix(.84533 0 0 .4655 5040 1512.1)" fill="url(#rewardf)" stroke-width="28.702">
      <path d="m2584.7-3411.4 1.84 1.839zm-515.09 2460.2 3.68 1.84zm755.47-2214.9c-68.725-222.23-288.19-365.27-503.35-422.67-264.61-68.858-549.13 24.734-746.53 207.22-323.88 292.26-518.52 750.34-437.98 1186.6 69.73 358.86 311.7 653.57 563.07 906.46 119.56 115.94 242.72 230.94 369.32 337.29 23.105 11.83 108.72 134.87 108.71 213.39 21.588 90.449-20.203 225.53-69.892 251.18-212.98 109.97-654.91-258.48-566.68-629.34-326.7 387.51 426.24 1010.4 677.6 823.01 89.024-66.382 163.58-358.22 57.938-513.62-98.046-156.31-264.6-245.16-387.45-378.47-208.23-193.66-399.66-412.13-517.45-672.78-127.64-287.57-123.5-630.19 9.582-916.06 133.63-284.09 338.6-563.64 641.65-678.93 169.18-56.383 368.49-65.502 528.28 17.198 14.082 9.23 42.965 24.666 69.6 63.468 118.86 159.42 121.22 398.85 3.333 558.14-6.992 120.22 148.18 37.025 164.34-38.685 43.916-87.982 64.03-219.81 35.91-313.41zm-787.36 2119.2-4.599-4.599zm583.78-2325.3-0.92-1.84z" fill="url(#rewardf)" stroke-linecap="round" stroke-linejoin="round" stroke-opacity=".987"/>
     </g>
    </g>
    <g transform="matrix(4.3101 0 0 -4.3101 3754.3 282.33)" stroke-opacity=".987" stroke-width="4.177">
     <g clip-path="url(#rewardh)">
      <path d="m548.94 511.04c6.072-15.632 19.931-26.314 27.554-41.029 4.074-6.908 5.094-15.349 3.259-23.134-3.321-10.278-11.519-19.678-22.392-21.967-6.695-0.666-14.896 2.707-16.408 10.488-0.818 4.448 2.605 9.984 6.294 9.4 3.618-0.524 3.307-4.471 1.279-6.798 3.875 2.754 7.812 5.617 6.051 11.972-2.209 5.559-8.511 6.566-14.048 4.992-10.156-3.62-12.931-15.643-12.959-25.204 0.877-9.126 4.337-17.952 3.801-27.24 0.313-13.545-1.271-28.996-11.557-38.982-5.68-4.568-12.618-9.772-20.403-8.017-4.114 0.445-7.12 4.217-8.2 7.988-0.947 3.893 1.947 7.453 4.276 10.217 7.786 7.008 17.791 11.811 23.399 21.018 3.299 6.858 2.37 15.138-0.755 21.876-5.851 10.064-14.817 17.881-24.367 24.305 4.972-7.402 11.244-14.351 13.363-23.248 1.694-5.536 1.381-12.232-2.34-16.902-12.719-15.189-33.302-21.412-44.942-37.7-4.719-6.787-4.498-15.562-2.38-23.227 2.32-7.603 15.685-12.527 12.133-19.382-3.375-3.605-10.217-1.162-13.938 2.387-4.79 4.359-5.708 11.348-5.487 17.469 1.362 14.967 6.092 30.076 2.33 45.082-1.402 9.178-8.633 15.432-15.057 21.342 1.714-4.356 3.791-8.574 5.284-13.021 5.023-14.715-2.753-29.469-6.445-43.568-3.731-11.206-3.67-23.47-0.262-34.756 2.3-7.271 6.868-13.475 10.529-20.09-12.152 5.94-20.12 17.953-24.457 30.408-4.074 11.558-4.115 23.834-3.429 35.894-3.6-7.633-6.192-16.077-5.254-24.619 0.544-14.926 7.625-28.481 14.12-41.571-7.08 3.993-13.515 8.996-19.717 14.2 6.031-16.189 21.542-25.386 34.623-35.27 15.662-10.841 29.187-25.667 36.085-43.61 6.093-18.284-1.168-37.205-3.862-55.4 12.868-3.901 22.39-13.714 30.045-24.356 8.452 10.035 17.255 21.099 30.68 24.286-3.198 15.675-8.028 31.377-5.818 47.584 2.812 18.628 16.246 33.615 30.043 45.445 14.836 12.969 34.918 22.037 42.601 41.461-6.192-4.982-12.244-10.267-19.435-13.786 4.953 11.073 10.833 21.924 12.889 34.038 1.05 10.682 0.031 21.744-4.497 31.548 1.09-17.781-0.868-36.924-11.64-51.719-3.943-6.19-10.266-10.206-16.076-14.453 5.82 11.378 12.165 23.318 11.236 36.531 0.504 16.813-8.795 32.685-5.365 49.61 2.157 8.381 9.036 14.039 14.452 20.312-12.011-2.692-23.033-11.265-26.545-23.377-4.79-14.929 3.208-30.621-0.766-45.568-2.643-8.985-14.735-11.779-22.068-6.948-4.953 3.308-5.193 10.508-2.36 15.3 1.945 3.156 5.598 4.598 9.258 3.469 2.955-1.329 2.898-3.86 1.328-5.52-1.039-1.247-2.459-1.767-5.654-2.265 2.833-1.089 6.214-2.603 9.017-0.575 3.066 2.571 4.326 6.786 4.346 10.679-0.504 11.922-6.222 24.266-1.623 36.026 11.416 17.861 31.748 27.704 43.034 45.727 7.453 10.853 5.83 25.055 3.026 37.186-5.295 17.185-21.381 27.189-33.473 39.191-8.11 7.515-11.438 18.235-13.041 28.815-2.189-7.503-2.008-15.591 0.685-22.944m-27.039-258.5c4.942 12.063 16.905 20.572 18.406 34.17 0.746-7.465 0.727-15.503-3.277-22.098-5.466-8.583-10.963-17.146-16.086-25.94-0.374 4.66-0.938 9.42 0.957 13.868m-49.842 13.08c-3.298 6.152-2.956 13.383-3.48 20.12 3.188-10.357 10.369-18.567 16.489-27.25 4.085-6.041 3.44-13.665 3.916-20.595-5.165 9.533-11.549 18.325-16.925 27.725"/>
     </g>
    </g>
    <g transform="matrix(4.3101 0 0 -4.3101 3767 275.97)" fill="url(#rewarda)" stroke-opacity=".987" stroke-width="4.177">
     <g clip-path="url(#rewardh)" fill="url(#rewarda)">
      <g fill="url(#rewarda)">
       <g fill="url(#rewarda)">
        <path d="m548.94 511.04c6.072-15.632 19.931-26.314 27.554-41.029 4.074-6.908 5.094-15.349 3.259-23.134-3.321-10.278-11.519-19.678-22.392-21.967-6.695-0.666-14.896 2.707-16.408 10.488-0.818 4.448 2.605 9.984 6.294 9.4 3.618-0.524 3.307-4.471 1.279-6.798 3.875 2.754 7.812 5.617 6.051 11.972-2.209 5.559-8.511 6.566-14.048 4.992-10.156-3.62-12.931-15.643-12.959-25.204 0.877-9.126 4.337-17.952 3.801-27.24 0.313-13.545-1.271-28.996-11.557-38.982-5.68-4.568-12.618-9.772-20.403-8.017-4.114 0.445-7.12 4.217-8.2 7.988-0.947 3.893 1.947 7.453 4.276 10.217 7.786 7.008 17.791 11.811 23.399 21.018 3.299 6.858 2.37 15.138-0.755 21.876-5.851 10.064-14.817 17.881-24.367 24.305 4.972-7.402 11.244-14.351 13.363-23.248 1.694-5.536 1.381-12.232-2.34-16.902-12.719-15.189-33.302-21.412-44.942-37.7-4.719-6.787-4.498-15.562-2.38-23.227 2.32-7.603 15.685-12.527 12.133-19.382-3.375-3.605-10.217-1.162-13.938 2.387-4.79 4.359-5.708 11.348-5.487 17.469 1.362 14.967 6.092 30.076 2.33 45.082-1.402 9.178-8.633 15.432-15.057 21.342 1.714-4.356 3.791-8.574 5.284-13.021 5.023-14.715-2.753-29.469-6.445-43.568-3.731-11.206-3.67-23.47-0.262-34.756 2.3-7.271 6.868-13.475 10.529-20.09-12.152 5.94-20.12 17.953-24.457 30.408-4.074 11.558-4.115 23.834-3.429 35.894-3.6-7.633-6.192-16.077-5.254-24.619 0.544-14.926 7.625-28.481 14.12-41.571-7.08 3.993-13.515 8.996-19.717 14.2 6.031-16.189 21.542-25.386 34.623-35.27 15.662-10.841 29.187-25.667 36.085-43.61 6.093-18.284-1.168-37.205-3.862-55.4 12.868-3.901 22.39-13.714 30.045-24.356 8.452 10.035 17.255 21.099 30.68 24.286-3.198 15.675-8.028 31.377-5.818 47.584 2.812 18.628 16.246 33.615 30.043 45.445 14.836 12.969 34.918 22.037 42.601 41.461-6.192-4.982-12.244-10.267-19.435-13.786 4.953 11.073 10.833 21.924 12.889 34.038 1.05 10.682 0.031 21.744-4.497 31.548 1.09-17.781-0.868-36.924-11.64-51.719-3.943-6.19-10.266-10.206-16.076-14.453 5.82 11.378 12.165 23.318 11.236 36.531 0.504 16.813-8.795 32.685-5.365 49.61 2.157 8.381 9.036 14.039 14.452 20.312-12.011-2.692-23.033-11.265-26.545-23.377-4.79-14.929 3.208-30.621-0.766-45.568-2.643-8.985-14.735-11.779-22.068-6.948-4.953 3.308-5.193 10.508-2.36 15.3 1.945 3.156 5.598 4.598 9.258 3.469 2.955-1.329 2.898-3.86 1.328-5.52-1.039-1.247-2.459-1.767-5.654-2.265 2.833-1.089 6.214-2.603 9.017-0.575 3.066 2.571 4.326 6.786 4.346 10.679-0.504 11.922-6.222 24.266-1.623 36.026 11.416 17.861 31.748 27.704 43.034 45.727 7.453 10.853 5.83 25.055 3.026 37.186-5.295 17.185-21.381 27.189-33.473 39.191-8.11 7.515-11.438 18.235-13.041 28.815-2.189-7.503-2.008-15.591 0.685-22.944m-27.039-258.5c4.942 12.063 16.905 20.572 18.406 34.17 0.746-7.465 0.727-15.503-3.277-22.098-5.466-8.583-10.963-17.146-16.086-25.94-0.374 4.66-0.938 9.42 0.957 13.868m-49.842 13.08c-3.298 6.152-2.956 13.383-3.48 20.12 3.188-10.357 10.369-18.567 16.489-27.25 4.085-6.041 3.44-13.665 3.916-20.595-5.165 9.533-11.549 18.325-16.925 27.725" fill="url(#rewarda)"/>
       </g>
      </g>
     </g>
    </g>
   </g>
  </g>
  <g transform="matrix(.025456 0 0 .025456 -77.161 327.64)">
   <g transform="matrix(13.589 0 0 13.571 3780.5 -10944)" fill="#fff" stroke="#000" stroke-width=".3">
    <path d="m497.93 753.39c-24.267-3.553-56.38-15.365-77.634-28.556-11.389-7.069-24.364-19.634-27.72-26.846-4.365-9.376-3.234-17.748 3.418-25.325 4.159-4.737 9.648-8.771 8.75-6.432-0.344 0.896-0.94 3.347-1.326 5.449l-0.702 3.821 2.86-2.831c1.574-1.558 3.732-3.297 4.795-3.867 1.667-0.892 1.825-0.777 1.144 0.832-0.435 1.026-0.995 4.341-1.244 7.366-1.985 24.13 35.782 50.516 76.731 53.608 10.067 0.76 20.966-0.806 25.616-3.68 4.73-2.922 8.682-9.575 9.173-15.436 0.643-7.695-1.178-12.662-6.965-18.994-5.466-5.981-13.16-11.83-14.197-10.792-0.345 0.345-0.627 0.076-0.627-0.598s-0.45-0.948-1-0.608-1 0.115-1-0.5-0.41-0.865-0.91-0.556c-1.403 0.867-4.162-0.519-3.42-1.719 0.413-0.668 0.038-0.827-1.006-0.426-0.915 0.35-1.664 0.176-1.664-0.39 0-0.565-0.45-0.749-1-0.409s-1 0.115-1-0.5-0.45-0.84-1-0.5-1 0.115-1-0.5-0.45-0.84-1-0.5-1 0.115-1-0.5-0.45-0.84-1-0.5-1 0.115-1-0.5-0.45-0.84-1-0.5-1 0.115-1-0.5-0.45-0.84-1-0.5-1 0.115-1-0.5-0.45-0.84-1-0.5-1 0.115-1-0.5-0.45-0.84-1-0.5-1 0.115-1-0.5-0.45-0.84-1-0.5-1 0.115-1-0.5-0.45-0.84-1-0.5-1 0.115-1-0.5-0.45-0.84-1-0.5-1 0.115-1-0.5-0.45-0.84-1-0.5-1 0.115-1-0.5-0.45-0.84-1-0.5-1 0.115-1-0.5-0.45-0.84-1-0.5-1 0.115-1-0.5-0.45-0.84-1-0.5-1 0.115-1-0.5-0.45-0.84-1-0.5-1 0.115-1-0.5-0.45-0.84-1-0.5-1 0.115-1-0.5-0.45-0.84-1-0.5-1 0.115-1-0.5-0.45-0.84-1-0.5-1 0.115-1-0.5-0.45-0.84-1-0.5-1 0.115-1-0.5-0.412-0.864-0.915-0.553-1.065 0.2-1.25-0.248c-0.184-0.448-3.935-2.54-8.335-4.651-4.4-2.11-9.8-5.03-12-6.49-2.2-1.459-4.807-2.962-5.793-3.34-2.23-0.856-23.124-13.602-31.207-19.038-27.055-18.194-47.16-38.045-56.392-55.68-4.957-9.47-6.986-16.49-8.154-28.214-1.15-11.553-1.185-11.786-1.752-11.786-0.256 0-6.368-1.552-13.584-3.449-31.583-8.303-56.203-11.776-83.618-11.795-36.253-0.024-65.11 6.263-93.065 20.277-6.547 3.282-12.723 5.967-13.724 5.967-3.889 0-18.211-10.754-18.211-13.674 0-2.328 13.27-12.28 23.128-17.343 11.162-5.733 26.632-11.143 40.046-14.003 28.038-5.98 100.85-10.967 160.21-10.976l22.879-4e-3 8.62-8.309c11.46-11.044 16.531-15.086 29.622-23.614 12.573-8.19 31.081-17.605 43.5-22.129 13.115-4.777 36.124-10.258 52.052-12.4l4.551-0.611 1.195-18.219c5.686-86.663 7.73-171.62 4.633-192.59-2.706-18.327-9.14-34.477-17.09-42.895-2.736-2.897-4.794-5.447-4.573-5.668 0.874-0.874-11.823-2.061-21.268-1.988-20.172 0.156-41.93 9.047-60.426 24.692l-3.274 2.77 1.602 8.73c2.828 15.41 1.81 24.193-4.394 37.874-1.664 3.67-2.837 6.861-2.606 7.092 0.745 0.745 8.676-6.989 11.753-11.461 5.678-8.252 9.743-24.486 9.915-39.597l0.071-6.177 1.493 4c2.887 7.736-1.022 27.826-7.493 38.509-5.564 9.184-15.805 18.66-17.9 16.564-0.316-0.315-0.063-0.573 0.561-0.573s0.891-0.637 0.593-1.414c-0.299-0.778 0.8-4.49 2.44-8.25 5.46-12.509 6.42-20.647 4.348-36.836-2.916-22.784-3.263-26.82-2.376-27.707 0.562-0.563 1.111 2.034 1.408 6.66 0.268 4.17 0.777 7.872 1.132 8.227 0.356 0.356 3.284-1.402 6.507-3.905 18.329-14.234 41.704-22.182 62.146-21.13 4.125 0.212 9.88 1.101 12.79 1.976 4.46 1.34 6.079 2.555 10.308 7.734 9.32 11.412 15.758 27.404 18.52 46.003 2.623 17.67 1.149 96.02-3.145 167.14-2.371 39.278-2.505 40.5-4.417 40.5-0.91 0-2.083 0.416-2.606 0.924-0.522 0.508-5.45 1.668-10.95 2.578-12.734 2.105-36.515 8.181-43 10.986-4.294 1.857-6.786 2.771-8.473 3.107-0.81 0.161-1.934 0.92-2.5 1.687-0.565 0.766-1.663 1.18-2.44 0.918s-1.902 0.194-2.5 1.011c-1.15 1.573-1.65 1.789-4.146 1.789-0.857 0-1.274 0.46-0.926 1.024 0.349 0.564 0.263 0.96-0.19 0.882-2.709-0.47-4.487 0.228-3.976 1.562 0.31 0.807 0.064 1.777-0.547 2.154-0.673 0.416-0.83 0.231-0.397-0.468 0.997-1.613-0.518-1.44-4.501 0.517-5.026 2.469-6.585 5.329-2.905 5.329 1.636 0 2 0.667 2 3.667 0 4.143-0.876 4.105-1.22-0.053-0.174-2.108-0.458-2.415-1.253-1.358-0.565 0.753-1.814 1.663-2.777 2.025-0.963 0.36-1.718 1.458-1.68 2.438 0.062 1.559 0.178 1.532 0.93-0.219 0.632-1.47 0.878-1.581 0.93-0.417 0.093 2.1-0.81 2.9-2.528 2.241-1.812-0.695-1.794-2.754 0.039-4.275 0.792-0.657 1.194-1.837 0.893-2.622-0.302-0.785-0.098-1.427 0.452-1.427s1.283-0.739 1.63-1.641c0.552-1.44 0.411-1.47-1.143-0.25-0.975 0.765-2.138 1.963-2.584 2.662-0.447 0.7-1.166 1.052-1.599 0.785-0.433-0.268-1.707 0.37-2.832 1.418s-2.318 1.633-2.652 1.3c-0.333-0.334-0.606-0.082-0.606 0.56 0 0.641-0.627 1.166-1.393 1.166s-1.652 0.675-1.969 1.5c-0.316 0.825-1.216 1.5-2 1.5-0.783 0-1.694 0.704-2.024 1.563-0.33 0.86-1.098 1.256-1.707 0.88-0.807-0.499-0.806-0.123 3e-3 1.389 1.096 2.047 1.175 2.033 6.35-1.13 2.882-1.76 5.844-3.773 6.581-4.471 1.094-1.036 1.693-0.823 3.25 1.157 1.547 1.967 1.946 4.294 2.103 12.27l0.194 9.842 0.612-10 0.613-10 0.194 9.797 0.193 9.796 2.25-1.696c2.07-1.56 2.237-2.424 2.08-10.796-0.14-7.396-0.03-8.164 0.581-4.101 0.414 2.75 0.602 6.323 0.418 7.94-0.183 1.616 0.152 3.24 0.746 3.606 0.633 0.391-0.67 1.954-3.148 3.777-2.326 1.71-4.61 2.873-5.077 2.584-0.468-0.289-0.85-0.04-0.85 0.553 0 1.582 4.928 0.112 7.181-2.141 1.04-1.04 2.337-1.617 2.88-1.281 0.544 0.336 0.924 0.24 0.845-0.214-0.315-1.816 0.137-3.416 0.844-2.988 0.412 0.25 1.3-0.14 1.97-0.867 0.962-1.04 0.962-1.427 0-1.816-0.67-0.273-0.37-0.53 0.67-0.574 1.04-0.043 2.535-0.867 3.324-1.829 0.83-1.012 1.111-1.118 0.668-0.25-0.658 1.288-0.528 1.307 0.915 0.137 0.925-0.75 1.508-1.65 1.297-2s0.244-1.217 1.011-1.926c1.139-1.053 1.4-1.053 1.427 0 0.023 0.943 0.36 0.887 1.253-0.211 0.672-0.825 1.891-1.649 2.71-1.83 0.817-0.182 1.715-0.665 1.996-1.073 0.28-0.409 1.325-1.044 2.322-1.413 1.05-0.388 1.512-1.159 1.096-1.831-0.47-0.76-0.279-0.89 0.548-0.38 0.697 0.431 1.554 0.379 1.905-0.115 0.35-0.494 1.763-1.449 3.138-2.121s3.175-1.606 4-2.074c0.825-0.469 2.574-1.414 3.887-2.102 1.313-0.687 3.9-2.1 5.75-3.138 1.85-1.039 3.363-1.616 3.363-1.283 0 0.332 0.563 0.145 1.25-0.418 1.74-1.423 12.621-5.836 22.79-9.242 8.675-2.906 16.966-3.694 16.953-1.612-0.028 4.898-6.086 48.937-6.955 50.56-2.311 4.32-5.515 5.41-13.83 4.706-15.536-1.314-35.176-2.62-54.188-3.6l-19.48-1.006-4.808 4.736c-2.645 2.605-5.016 4.623-5.27 4.486-1.173-0.635-2.462-0.137-2.462 0.95 0 0.758 0.35 0.85 0.95 0.25 0.9-0.901 6.138-0.768 38.55 0.976 23.469 1.263 47.319 3.237 50.7 4.195 2.323 0.659 5.8 6.523 5.8 9.781 0 3.802-8.377 40.87-12.451 55.098-6.035 21.072-7.44 22.96-14.877 19.987-2.295-0.916-6.647-4.008-9.672-6.87-14.913-14.105-33.765-26.737-59.189-39.658-14.477-7.358-17.814-8.716-17.825-7.256-8e-3 0.989-0.266 2.737-0.574 3.886-0.486 1.811 0.28 2.392 5.764 4.37 3.478 1.254 10.485 4.251 15.57 6.66 5.086 2.41 9.438 4.381 9.671 4.381 1.227 0 18.994 10.865 24.8 15.165 8.765 6.492 19.036 17.57 25.283 27.27 2.75 4.27 6.706 9.702 8.791 12.071 5.03 5.714 13.45 11.415 17.934 12.143 3.489 0.566 3.688 0.432 5.607-3.78 8.599-18.877 15.369-41.404 20.696-68.869 1.44-7.425 3.494-17.98 4.565-23.455 2.071-10.596 3.424-13.527 7.467-16.176 2.68-1.756 6.907-1.673 27.94 0.55 4.95 0.524 12.6 1.247 17 1.608s14.13 1.256 21.622 1.987c19.682 1.923 31.411 0.147 46.378-7.02 18.06-8.65 28.578-29.003 21.699-41.994-5.17-9.762-17.99-19.687-35.051-27.136-4.206-1.837-7.054-3.345-6.328-3.352 0.725-7e-3 4.68 1.388 8.79 3.098 14.466 6.022 28.994 17.41 33.668 26.39 1.481 2.845 2.085 5.877 2.092 10.5 0.026 17.205-15.928 33.26-39.37 39.617-10.996 2.983-34.181 2.05-85.598-3.444-3.89-0.416-8.515-0.382-10.276 0.074-3.785 0.981-6.72 5.266-7.65 11.17-0.353 2.245-2.613 13.983-5.021 26.083-5.016 25.202-10.597 45.185-17.036 61-2.463 6.05-4.68 11.867-4.925 12.927-0.663 2.855-1.984 3.795-4.629 3.294-2.17-0.412-2.14-0.46 0.385-0.585 1.512-0.075 2.75-0.496 2.75-0.935 0-0.44-1.551-0.618-3.448-0.397-6.782 0.792-21.152-9.803-26.742-19.717-4.388-7.782-12.213-17.586-19.226-24.087-3.264-3.025-6.755-6.288-7.759-7.25-1.004-0.963-2.19-1.75-2.636-1.75-0.447 0-1.787-0.908-2.979-2.019-2.484-2.314-13.121-8.7-15.27-9.168-0.792-0.172-1.665-0.576-1.94-0.898-0.572-0.67-15.025-7.284-25.75-11.784l-7.25-3.041v6.89c0 24.95 13.468 46.97 43.562 71.222 6.851 5.521 31.867 22.799 33.01 22.799 0.324 0 2.962 1.575 5.862 3.5s5.72 3.5 6.266 3.5c0.547 0 2.032 0.9 3.3 2s2.912 2 3.653 2c0.74 0 1.347 0.45 1.347 1s0.337 0.947 0.75 0.882c1.787-0.283 3.087 0.242 5.25 2.118 1.268 1.1 2.912 2 3.653 2 0.74 0 1.347 0.477 1.347 1.059s0.45 0.78 1 0.441c0.55-0.34 1-0.115 1 0.5s0.45 0.84 1 0.5 1-0.067 1 0.608c0 0.674 0.279 0.947 0.619 0.606 0.34-0.34 1.277 0.039 2.08 0.843 0.805 0.804 1.88 1.204 2.389 0.889 0.51-0.315 1.195 0.128 1.524 0.985s1 1.308 1.493 1.004c0.492-0.304 0.895-0.05 0.895 0.565s0.45 0.84 1 0.5 1-0.115 1 0.5 0.45 0.84 1 0.5 1-0.115 1 0.5 0.41 0.865 0.91 0.556c1.403-0.867 4.162 0.519 3.42 1.719-0.413 0.668-0.038 0.827 1.006 0.426 0.915-0.35 1.664-0.176 1.664 0.39 0 0.565 0.45 0.749 1 0.409s1-0.115 1 0.5 0.45 0.84 1 0.5 1-0.115 1 0.5 0.45 0.84 1 0.5 1-0.115 1 0.5 0.412 0.864 0.915 0.553 1.072-0.093 1.264 0.485c0.193 0.578 1.356 1.127 2.586 1.22 1.23 0.092 2.235 0.548 2.235 1.014 0 0.465 0.45 0.568 1 0.228s1-0.141 1 0.441 0.338 0.97 0.75 0.863c1.233-0.323 19.261 9.101 26.26 13.727 6.777 4.48 15.336 12.79 14.271 13.855-0.338 0.337-0.185 0.614 0.34 0.614 1.338 0 1.778 3.187 1.793 13 0.012 7.338-0.362 9.222-2.735 13.786-9.057 17.416-24.752 22.848-53.75 18.603zm34.81-2.845c6.586-2.03 13.935-9.113 17.893-17.247 3.722-7.65 4.004-18.565 0.643-24.914-4.746-8.966-18.925-17.963-51.982-32.981-4.514-2.051-7.932-4.175-7.595-4.72 0.336-0.545 0.113-0.683-0.497-0.306-1.198 0.74-9.811-3.062-20.2-8.917a1065.2 1065.2 0 0 0-14-7.713c-4.125-2.227-9.188-5.111-11.25-6.41-2.063-1.299-3.75-2.108-3.75-1.798s-1.556-0.623-3.457-2.073-3.926-2.346-4.5-1.992c-0.574 0.355-1.043 0.245-1.043-0.244 0-1.282-8.612-7.284-9.367-6.529-0.348 0.348-0.633 0.082-0.633-0.592s-0.52-0.905-1.155-0.513c-0.699 0.433-0.883 0.276-0.467-0.398 0.794-1.284-4.677-4.514-8.236-4.863-2.323-0.227-2.33-0.199-0.5 1.89 1.022 1.166 1.3 1.794 0.62 1.396-0.837-0.49-1.046-0.22-0.644 0.828 0.328 0.854 1.242 1.552 2.03 1.552 0.79 0 2.385 0.884 3.545 1.965s2.445 1.759 2.854 1.506 1.02 0.26 1.357 1.138c0.337 0.88 1.247 1.355 2.022 1.058s1.661 0.118 1.97 0.923c0.309 0.804 2.7 2.38 5.313 3.5s4.987 2.419 5.276 2.886c0.29 0.468 13.573 7.494 29.52 15.614s28.871 15.168 28.72 15.661c-0.15 0.494 0.229 0.587 0.844 0.206 1.996-1.233 12.016 4.886 18.45 11.267 6.777 6.722 9.489 12.363 9.471 19.704-0.013 5.54-3.941 13.562-8.467 17.293-5.527 4.555-11.156 5.806-25.19 5.596-14.713-0.22-30.994-4.046-43.986-10.334-4.526-2.19-8.705-3.983-9.288-3.983-0.582 0-1.059-0.45-1.059-1s-0.675-1-1.5-1-1.5-0.45-1.5-1-0.45-1-1-1-1.916-0.916-3.036-2.036-2.482-1.762-3.025-1.426c-0.544 0.336-0.865 0.19-0.714-0.324 0.33-1.121-8.028-9.214-9.515-9.214-0.574 0-0.764-0.28-0.423-0.62 0.342-0.342-0.483-2.247-1.833-4.233s-2.454-4.208-2.454-4.938-0.45-1.049-1-0.709c-1.062 0.657-1.073 0.63-1.623-4-0.94-7.902-1.678-10.5-2.986-10.5-0.765 0-1.405 0.563-1.423 1.25-0.017 0.688-0.955 0.013-2.083-1.5-1.129-1.512-2.54-2.75-3.135-2.75-0.596 0-0.81 0.273-0.477 0.606s-0.532 1.744-1.924 3.135c-1.888 1.889-2.207 2.729-1.26 3.314 1.505 0.93 2.133 3.945 0.823 3.945-0.502 0-0.964-0.787-1.028-1.75-0.11-1.667-0.138-1.667-0.573 0-0.252 0.963-0.93 1.75-1.51 1.75-0.667 0-0.788 1.188-0.332 3.25 0.395 1.788 0.901 4.565 1.125 6.172s1.082 3.667 1.906 4.579c0.825 0.91 1.5 2.033 1.5 2.494 0 0.46 0.663 1.55 1.474 2.421 0.81 0.871 2.89 3.281 4.622 5.355 2.183 2.615 3.504 3.476 4.31 2.807 0.75-0.622 1.68-0.596 2.628 0.074 1.206 0.853 1.156 0.937-0.284 0.474-0.963-0.31-1.75-0.127-1.75 0.405 0 0.533 0.477 0.969 1.059 0.969s0.81 0.403 0.506 0.895c-0.305 0.493 0.119 1.153 0.94 1.469 0.823 0.315 1.502 0.025 1.51-0.645s0.57-0.145 1.25 1.169c0.68 1.313 1.553 2.213 1.942 2 0.389-0.214 1.387 0.512 2.218 1.612s1.526 1.683 1.543 1.295c0.018-0.387 1.177 0.44 2.576 1.84 1.412 1.412 3.193 2.296 4 1.986 0.803-0.308 1.456 0.01 1.456 0.711 0 1.514 8.723 5.957 10.065 5.128 0.514-0.318 0.935-0.134 0.935 0.409 0 0.98 10.226 6.176 15 7.62 1.375 0.415 2.95 1.075 3.5 1.464 1.186 0.841 13.723 5.177 21.5 7.436 5.363 1.558 17.973 4.065 25 4.97 6.773 0.872 24.533-0.212 29.737-1.816zm-128.16-41.674c-1.059-1.03-1.451-1.871-0.872-1.871 1.154 0 3.82 2.838 3.19 3.395-0.216 0.19-1.26-0.495-2.318-1.524zm-3.074-4.87c-0.35-1.1-1.306-2-2.126-2s-1.21-0.457-0.864-1.016c0.346-0.56 1.042-0.76 1.548-0.448 0.512 0.316 0.621-0.208 0.247-1.183-0.448-1.168-0.812-1.332-1.092-0.491-0.72 2.162-4.222-1.872-4.137-4.767 0.07-2.398 0.18-2.33 1.456 0.905l1.38 3.5-0.26-5.25c-0.144-2.888 0.1-5.25 0.543-5.25s0.805 1.935 0.805 4.3 0.481 4.781 1.07 5.37c0.945 0.945 1.416 2.372 1.924 5.83 0.08 0.55 0.535 0.1 1.01-1 0.746-1.726 0.844-1.623 0.712 0.75-0.178 3.22-1.31 3.604-2.216 0.75zm9.606-7.53c-1.317-1.933-2.105-3.805-1.75-4.16 0.354-0.353 0.644-0.187 0.644 0.37 0 0.558 0.9 2.052 2 3.32 1.707 1.968 2.605 4.017 1.75 3.993-0.138-4e-3 -1.327-1.589-2.644-3.522zm-10.396-5.47c-0.287-1.1-0.115-2 0.384-2 0.498 0 0.906 0.9 0.906 2s-0.173 2-0.383 2c-0.211 0-0.62-0.9-0.907-2zm-7.11-3.6c-0.356-0.927-0.422-1.911-0.147-2.186s0.791 0.259 1.147 1.186 0.422 1.911 0.147 2.186-0.791-0.259-1.147-1.186zm2.815-1.538c-0.483-0.782-0.288-0.901 0.588-0.36 0.972 0.6 1.17 0.268 0.765-1.281-0.312-1.192-0.016-2.295 0.686-2.565 0.837-0.321 1.085 0.306 0.77 1.95-0.55 2.878-1.803 3.884-2.81 2.256zm9.209-1.4c-0.343-0.894-0.595-2.151-0.56-2.794 0.034-0.642 0.494-0.09 1.02 1.227 0.528 1.318 0.78 2.574 0.561 2.793-0.219 0.22-0.679-0.333-1.021-1.227zm-4.416-0.138c-0.992-0.398-1.021-0.844-0.127-1.921 0.901-1.087 0.854-1.429-0.209-1.518-0.754-0.064-2.008-0.176-2.786-0.25-2.139-0.204-2.41-2.297-0.397-3.069 0.975-0.374 1.932-0.202 2.127 0.383s0.766 0.81 1.27 0.498c0.502-0.31 0.972-0.201 1.043 0.244 0.13 0.82 0.503 6.375 0.417 6.23-0.025-0.043-0.627-0.312-1.338-0.597zm-2.208-5.324c0-0.55-0.198-1-0.441-1s-0.72 0.45-1.059 1c-0.34 0.55-0.141 1 0.441 1s1.059-0.45 1.059-1zm12-48.256c0-0.69-1.376-1.865-3.057-2.61-1.682-0.743-2.818-1.592-2.525-1.886 0.294-0.293 1.214 0.031 2.045 0.721 1.628 1.351 4.537 0.75 4.537-0.938 0-0.567-0.702-1.031-1.559-1.031-0.981 0-1.28 0.463-0.808 1.25 0.51 0.85 0.209 0.81-0.941-0.122-1.832-1.486-2.32-2.634-0.692-1.628 1.582 0.978 1.162-1.12-0.5-2.5-0.825-0.685-1.5-0.915-1.5-0.512 0 0.404-0.87-0.329-1.934-1.627-1.935-2.361-2.415-0.812-0.633 2.044 0.6 0.961 0.512 1.18-0.278 0.69-0.69-0.426-1.155-0.065-1.155 0.897 0 1.278-0.722 1.06-3.5-1.06-1.925-1.468-3.5-2.152-3.5-1.52 0 0.633 0.753 1.44 1.674 1.793 0.92 0.353 2.497 1.466 3.505 2.474 1.007 1.007 3.63 2.61 5.826 3.562 2.197 0.952 3.995 2.075 3.995 2.495s0.225 0.764 0.5 0.764 0.5-0.565 0.5-1.256zm-9.466-10.077c0.043-1.51-3.467-3.598-6.034-3.59-1.676 3e-3 -1.443 0.48 1.437 2.943 3.349 2.863 4.528 3.029 4.597 0.647zm-6.534-1.141c0-0.261-1.313-1.154-2.919-1.984-1.605-0.83-3.63-2.936-4.5-4.68-1.963-3.935-1.984-4.98-0.05-2.42 1.436 1.896 1.469 1.89 1.469-0.25 0-1.206 0.563-2.206 1.25-2.222 0.688-0.017 0.35-0.55-0.75-1.186-2.733-1.578-4.5-3.428-4.5-4.713 0-1.022-1.133-1.36-2.75-0.821-0.754 0.251-0.922 0.833-1.135 3.929-0.063 0.923-0.822 2.385-1.686 3.25-1.026 1.025-1.153 1.571-0.365 1.571 0.664 0 2.25 1.125 3.524 2.5s2.685 2.5 3.135 2.5 1.935 1.098 3.298 2.44c2.157 2.122 5.979 3.456 5.979 2.086zm-11.921-12.11c0.048-1.164 0.285-1.401 0.604-0.604 0.289 0.722 0.253 1.585-0.079 1.917s-0.568-0.258-0.525-1.312zm17.921 9.584c0-0.55-0.477-1-1.059-1s-0.78 0.45-0.441 1c0.34 0.55 0.816 1 1.059 1s0.441-0.45 0.441-1zm-6.419-1.132c0.385-0.622-0.038-1.544-0.94-2.05-0.903-0.504-1.641-1.41-1.641-2.014 0-0.603 1.15 0.145 2.555 1.661 3.5 3.776 4.179 2.577 0.752-1.328-3.377-3.85-4.884-3.96-5.77-0.426-0.917 3.65 3.24 7.076 5.044 4.157zm-15.987-13.244c-0.445-2.947-0.333-3.696 0.392-2.624 0.852 1.26 1.156 1.28 1.904 0.118 0.854-1.324-0.635-3.568-6.217-9.373-1.005-1.045-1.573-2.563-1.262-3.374 0.318-0.83 0.133-1.207-0.422-0.864-1.655 1.022-1.105 4.36 0.893 5.43 1.25 0.67 2.109 2.61 2.557 5.785 0.371 2.628 0.905 5.566 1.185 6.528 0.38 1.299-0.086 1.768-1.807 1.82-2.17 0.066-2.19 0.121-0.317 0.875 3.042 1.224 3.775 0.2 3.094-4.32zm-3.031-1.374c-0.131-2.063-0.311-4.763-0.4-6-0.09-1.238-0.512-2.25-0.94-2.25-0.426 0-0.604 1.8-0.394 4 0.374 3.925-0.097 4.493-3.412 4.113-0.596-0.068-1.084 0.477-1.084 1.21 0 0.875 0.892 1.195 2.584 0.928 2.041-0.322 2.268-0.185 1.083 0.655-1.251 0.887-1.143 1.066 0.65 1.079 1.863 0.013 2.118-0.487 1.913-3.735zm-5.416-1.172c1.945 1.042 1.988 0.831 1.519-7.578-0.266-4.758-0.787-8.954-1.158-9.325s-0.584-0.225-0.473 0.325c0.446 2.21-0.073 14.796-0.589 14.28-1.042-1.043-1.015-15.756 0.03-16.147 0.632-0.236 0.517-0.91-0.297-1.758-1.119-1.164-1.272-1.145-1 0.125 0.176 0.825-0.129 1.424-0.679 1.331-0.635-0.107-0.854 3.721-0.599 10.5 0.221 5.868 0.591 9.883 0.823 8.923 0.341-1.415 0.801-1.543 2.423-0.676zm-5.54-3.399c1.133 0.435 1.366-0.041 1.002-2.05-1.07-5.9-0.926-17.023 0.225-17.407 0.75-0.25 0.931 0.267 0.507 1.444-0.363 1.009-0.349 1.557 0.031 1.22 1.097-0.977 1.63-5.005 0.576-4.354-0.521 0.322-1.004 0.11-1.073-0.473-0.069-0.582-0.181-1.584-0.25-2.226-0.069-0.641-0.8-1.35-1.625-1.576-0.895-0.244-1.097-0.076-0.5 0.417 1.25 1.032 1.548 5.326 0.37 5.326-0.479 0-0.87 3.88-0.87 8.622 0 7.583-0.182 8.471-1.512 7.368-0.98-0.814-1.183-1.652-0.577-2.383 1.117-1.345 1.814-16.215 0.808-17.222-0.386-0.385-0.191-1.316 0.432-2.067 0.624-0.752 0.849-1.652 0.5-2-0.348-0.349-0.232-1.125 0.26-1.726 1.037-1.268-0.043-13.215-1.161-12.842-0.412 0.138-0.705-0.087-0.65-0.5 0.055-0.412 0.526-0.63 1.047-0.484 0.546 0.153 0.87-2.816 0.765-7-0.1-3.996 0.27-9.133 0.824-11.416 0.649-2.675 0.663-4.629 0.04-5.5-0.731-1.023-0.828-0.926-0.402 0.4 0.31 0.963 0.075 1.75-0.522 1.75-0.615 0-0.88 1.07-0.613 2.47 0.26 1.358 0.174 2.285-0.19 2.06-0.365-0.225-0.638 1.7-0.606 4.28 0.031 2.58-0.393 4.69-0.943 4.69s-0.843-0.45-0.652-1c0.192-0.55 0.388-3.587 0.437-6.75 0.048-3.162 0.454-5.75 0.901-5.75 0.448 0 0.807-1.237 0.799-2.75-0.012-2.061-0.246-2.386-0.934-1.298-0.506 0.799-0.697 1.811-0.426 2.25s0.017 0.798-0.566 0.798c-0.601 0-1.139 2.486-1.244 5.75l-0.185 5.75-0.365-5.191c-0.272-3.866 0.18-6.262 1.774-9.385 1.176-2.306 2.14-6.045 2.143-8.308 0.028-23.937-0.3-38.832-0.84-38.291-0.362 0.362-1.306 0.12-2.098-0.537-2.173-1.804-4.89-1.92-6.262-0.266-0.675 0.813-1.873 1.478-2.663 1.478s-1.154 0.457-0.809 1.016c0.346 0.56 1.16 0.74 1.81 0.4 0.649-0.339-0.478 0.892-2.504 2.734-3.883 3.532-11.429 14.742-10.097 15.002 0.43 0.084 1.456 0.197 2.281 0.252 0.825 0.054 1.5 0.773 1.5 1.597 0 0.845-0.73 1.378-1.675 1.222-0.92-0.152-1.948 0.166-2.282 0.707-0.334 0.54-1.227 0.745-1.985 0.454-1.566-0.601-2.291 1.455-2.333 6.616-0.015 1.97 0.193 2.625 0.477 1.5 0.638-2.529 3.32-5.605 4.338-4.975 0.893 0.551 0.097 4.272-1.067 4.992-0.433 0.267-0.582-0.527-0.331-1.766 0.32-1.588 0.04-1.367-0.955 0.749-0.803 1.71-1.046 3.465-0.565 4.082 0.489 0.627 0.234 1.889-0.607 3-0.798 1.055-1.534 1.468-1.634 0.918-0.244-1.336-0.599-4.567-0.755-6.872-0.1-1.493-0.412-1.636-1.533-0.705-0.774 0.642-1.28 2.315-1.127 3.718 0.154 1.403-0.13 4.195-0.632 6.205a251.23 251.23 0 0 0-1.178 4.875c-0.145 0.672-0.547 1.503-0.891 1.848-0.846 0.845 0.21 3.431 1.401 3.431 0.524 0 0.693-0.419 0.377-0.93-0.317-0.513-0.14-1.2 0.39-1.529 0.532-0.328 1.368 0.203 1.859 1.181 1.267 2.525 0.807 8.833-0.622 8.528-1.47-0.314-1.497 1.27-0.07 3.936 0.605 1.13 0.678 1.795 0.162 1.476-0.538-0.333-0.49 0.85 0.113 2.779 0.888 2.834 1.228 3.116 2.186 1.807 1.25-1.71 1.842-1.09 2.804 2.94 0.387 1.619 0.181 2.974-0.516 3.405-0.65 0.402-0.89 0.282-0.546-0.274 0.337-0.545 0.258-2.302-0.174-3.905l-0.787-2.914-0.526 2.72c-0.29 1.496-0.127 2.472 0.363 2.17 0.489-0.303 0.694 0.525 0.456 1.838-0.26 1.432 0.362 3.366 1.553 4.83 1.092 1.343 1.652 1.81 1.244 1.037-0.5-0.949-0.351-1.163 0.462-0.66 0.88 0.544 0.909 1.098 0.106 2.065s-0.774 1.521 0.106 2.065c0.813 0.503 0.941 0.32 0.394-0.565-0.524-0.848-0.418-1.067 0.302-0.622 0.61 0.377 0.875 1.3 0.587 2.052-0.289 0.751 0.454 2.277 1.65 3.391 1.294 1.206 1.866 2.524 1.413 3.257-0.488 0.79-0.347 0.975 0.394 0.517 0.635-0.392 1.154-0.207 1.154 0.41 0 0.619 1.35 2.26 3 3.648 1.65 1.389 3 3.223 3 4.076s0.788 2.196 1.75 2.985c0.963 0.789 1.118 1.106 0.346 0.706-0.873-0.453-1.157-0.327-0.75 0.332 0.361 0.583 1.494 0.841 2.517 0.574 1.201-0.315 2.084 0.162 2.488 1.343 0.344 1.007 1.526 3.181 2.626 4.831s2.314 3.652 2.696 4.45c0.45 0.94 0.828 1.048 1.075 0.306 0.21-0.63 1.046-0.889 1.859-0.577zm-3.873-2.596c-1.06-1.36-1.012-1.41 0.34-0.357 1.059 0.825 1.904 0.896 2.583 0.217 0.68-0.68 1.01-0.563 1.01 0.357 0 1.86-2.418 1.727-3.933-0.217zm93.825-9.502c1.067-0.781 1.973-1.794 2.012-2.25 0.04-0.457 0.6-1.956 1.247-3.331 3.48-7.404 17.182-63.93 17.182-70.88 0-1.65-0.489-3.304-1.086-3.673-1.58-0.977-48.115-4.241-70.345-4.934l-19.069-0.595-4.305 5.291c-6.104 7.503-12.488 20.534-11.787 24.06 0.455 2.294 0.318 2.553-0.8 1.51-1.128-1.054-1.13-1.88-0.017-5.037 0.936-2.652 1.038-4.44 0.342-6.009l-0.99-2.233 0.435 2.249c0.51 2.642-0.893 3.958-1.773 1.663-0.333-0.866-0.605-9.837-0.605-19.935 0-11.654-0.38-18.594-1.042-19.003-0.712-0.44-0.992 6.161-0.886 20.852 0.086 11.822-0.1 21.91-0.414 22.418-0.313 0.507 0.092 0.923 0.9 0.923 1.004 0 1.292-0.662 0.909-2.084-0.536-1.986-0.507-1.994 0.625-0.172 0.952 1.532 0.892 2.128-0.3 3-2.209 1.618 0.27 3.3 18.208 12.36 15.826 7.992 34.239 18.94 38.647 22.979 1.35 1.238 2.783 2.25 3.182 2.25 0.4 0 1.473 0.788 2.386 1.75 0.913 0.963 2.877 2.65 4.365 3.75 1.489 1.1 3.791 3.016 5.117 4.258 4.663 4.37 14.415 12.242 15.163 12.242 0.416 0 1.63-0.639 2.698-1.42zm-107.11-5.639c-0.967-1.068-2.238-1.942-2.825-1.942-0.588 0-0.068 0.7 1.154 1.557 1.223 0.856 2.259 2.318 2.302 3.25 0.053 1.13 0.253 1.259 0.603 0.385 0.288-0.72-0.268-2.182-1.234-3.25zm-15.858-42.472c0.055-2.136-0.34-3.387-1-3.167-1.612 0.537-1.931 3.58-0.55 5.245 1.55 1.868 1.447 2.007 1.55-2.078zm-211.59-5.97c0-0.157-0.675-0.545-1.5-0.862-0.905-0.347-1.5-5e-3 -1.5 0.862s0.595 1.209 1.5 0.862c0.825-0.317 1.5-0.705 1.5-0.862zm9.927 0.064c1.335-0.18 2.977-1.08 3.65-1.999 0.671-0.919 1.379-1.2 1.572-0.626 0.557 1.66 6.86-2.685 6.78-4.674-0.06-1.526-0.186-1.494-0.929 0.235-0.661 1.539-0.876 1.625-0.93 0.372-0.08-1.84 2.507-4.395 3.211-3.17 0.253 0.439 0.338 1.554 0.188 2.479-0.176 1.088 0.222 1.491 1.13 1.143 0.77-0.296 1.401-1.015 1.401-1.598 0-0.582 0.263-0.797 0.584-0.475 0.321 0.32 3.074-0.273 6.117-1.32 3.044-1.047 5.934-1.657 6.423-1.354 0.49 0.302 1.167-0.172 1.506-1.054 0.431-1.126 1.476-1.469 3.498-1.15 1.633 0.257 2.634 0.051 2.309-0.476a1.09 1.09 0 0 0-1.495-0.361c-0.505 0.312-0.651-0.13-0.324-0.984 0.718-1.87 8e-3 -1.96-2.607-0.327-1.481 0.925-2.243 0.943-3.115 0.071-0.871-0.871-0.633-1.815 0.975-3.86 1.995-2.536 2.129-2.572 2.129-0.57 0 1.23-0.635 2.134-1.5 2.134-0.825 0-1.5 0.45-1.5 1 0 1.614 2.73 1.146 3.393-0.582 0.871-2.27 0.75-9.893-0.143-9.013-0.412 0.406-1.278 2.169-1.924 3.917s-1.201 2.503-1.235 1.678c-0.1-2.449 2.354-6.5 3.939-6.5 0.808 0 1.47-0.525 1.47-1.167 0-1.58 0.76-2.228 3.06-2.61 1.067-0.176 2.991-0.898 4.276-1.603 1.284-0.705 2.598-1.02 2.918-0.699 0.321 0.32 1.295-0.032 2.165-0.785 0.87-0.752 2.931-1.64 4.581-1.975 2.237-0.453 2.491-0.381 1 0.282-1.1 0.49-2.787 1.138-3.75 1.442-1.473 0.465-1.729 1.704-1.615 7.834l0.135 7.281 1.247-7 1.246-7 0.118 6.191c0.119 6.189-0.568 7.58-3.863 7.829-1.25 0.094-1.46-1.092-1.186-6.703 0.183-3.75 0.107-6.817-0.168-6.817-2.915 0-3.664 1.556-3.664 7.607 0 3.595-0.438 6.393-1 6.393-0.554 0-1-2.635-1-5.906 0-5.437-0.16-5.865-2.023-5.378-1.832 0.48-1.869 0.643-0.385 1.727 1.228 0.898 1.527 2.308 1.193 5.628-0.245 2.436-0.795 5.216-1.222 6.179-0.61 1.376-0.3 1.75 1.452 1.75 1.885 0 2.034-0.236 0.965-1.524-0.696-0.838-0.976-1.813-0.622-2.167 0.353-0.353 0.642-0.131 0.642 0.493 0 0.648 0.714 0.861 1.664 0.497 0.992-0.38 1.414-0.233 1.044 0.364-0.341 0.552 0.015 1.004 0.792 1.004s1.197-0.349 0.933-0.775c-0.263-0.426 0.544-0.719 1.794-0.65 5.764 0.316 10.246-0.29 8.82-1.191-0.798-0.506-1.78-0.716-2.18-0.469-0.4 0.248-0.984 0.038-1.295-0.466-0.312-0.504 0.816-0.82 2.506-0.704 1.69 0.117 3.482 0.86 3.982 1.65 0.611 0.967 0.914 1.035 0.925 0.208 0.01-0.778 1.126-1.102 3.036-0.88 1.66 0.194 3.245-0.012 3.52-0.457 0.276-0.446 1.322-0.652 2.325-0.459 1.462 0.282 1.75-0.176 1.457-2.311-0.35-2.553-0.325-2.57 0.63-0.394 0.854 1.943 1.683 2.246 5.772 2.103l4.775-0.167-0.14-6.103c-0.078-3.356 0.044-4.527 0.27-2.602 0.9 7.678 1.15 8.077 4.896 7.825 4.647-0.313 4.46-1.825-0.226-1.825-2.158 0-3.304-0.362-2.75-0.87 0.522-0.477 2.638-0.653 4.7-0.39 2.765 0.353 3.75 0.951 3.75 2.276 0 1.31 0.547 1.654 2.016 1.27 1.108-0.29 2.257-0.918 2.552-1.395 0.295-0.478-0.275-0.634-1.266-0.349-0.991 0.286-0.774-0.02 0.482-0.68 2.12-1.112 2.762-4.496 1.112-5.862-0.332-0.275 0.257-1.395 1.31-2.488 1.393-1.447 1.746-1.55 1.298-0.382-0.34 0.883-0.704 3.69-0.81 6.238-0.218 5.197 1.737 6.517 2.124 1.434 0.321-4.21 1.182-4.985 1.182-1.062 0 2.666 0.298 3.007 2.25 2.58 1.871-0.41 1.997-0.296 0.75 0.68-1.267 0.991-1.19 1.1 0.5 0.7 1.1-0.26 2.9-0.792 4-1.18 1.434-0.508 1.616-0.434 0.643 0.26-1.932 1.381 0.275 2.54 3.116 1.637 2.172-0.691 2.18-0.737 0.241-1.495-1.736-0.678-1.764-0.79-0.219-0.852 0.98-0.038 2.042 0.608 2.36 1.438 0.44 1.148 1.961 1.446 6.374 1.25 3.275-0.146 5.55 0.136 5.234 0.648-0.32 0.517 1.002 0.653 3.077 0.316 2-0.325 3.88-0.199 4.175 0.28 0.296 0.479 1.317 0.897 2.269 0.929 4.301 0.145 7.811 0.622 8.73 1.186 0.55 0.338 2.237 0.547 3.75 0.466 1.512-0.082 2.75 0.203 2.75 0.634 0 0.43 0.337 0.691 0.75 0.579 0.744-0.203 9.373 1.018 12.25 1.732 18.26 4.536 29.51 7.684 31.932 8.937 2.984 1.543 3.03 1.527 3.638-1.201 0.339-1.52 0.804-3.47 1.033-4.334 0.322-1.21-2.047-2.397-10.343-5.179-18.37-6.161-49.38-13.751-56.184-13.751-1.627 0-3.28-0.521-3.674-1.158-2.032-3.288 30.888 3.324 53.835 10.814 12.457 4.065 15.484 4.301 17.889 1.394 0.894-1.08 1.794-1.797 2-1.59 0.4 0.4 0.843-2.954 1.08-8.186 0.112-2.48 0.439-2.984 1.41-2.177 0.696 0.577 1.036 1.646 0.756 2.375-0.63 1.644 1.245 2.956 2.145 1.5 0.36-0.583 0.177-1.636-0.407-2.34-0.758-0.913-0.71-1.65 0.164-2.573 1.002-1.058-5.257-1.213-34.274-0.852-19.525 0.243-34.712 0.263-33.75 0.044 0.963-0.219 1.751-0.702 1.752-1.074 1e-3 -0.373 4.164-0.72 9.25-0.773s19.598-0.218 32.248-0.366 23.788 0.056 24.75 0.453c0.963 0.398 1.752 0.337 1.754-0.134s1.783-3.202 3.956-6.068l3.95-5.212-31.705 0.468c-37.76 0.557-72.905 2.055-83.027 3.54-4.027 0.59-7.988 0.818-8.802 0.506-0.943-0.362-1.223-0.153-0.772 0.576 0.508 0.824-0.39 0.965-3.199 0.503-2.148-0.353-9.08-0.086-15.405 0.594-7.663 0.824-10.082 1.339-7.25 1.543 2.337 0.17 4.25 0.718 4.25 1.22 0 0.5 0.787 0.665 1.75 0.366 1.667-0.518 1.667-0.49 0 0.581-1.348 0.867-1.75 2.507-1.75 7.135 0 3.751-0.376 5.777-1 5.391-0.55-0.34-1-2.954-1-5.81 0-4.715-0.206-5.19-2.25-5.193-2.13-2e-3 -2.232 0.333-1.915 6.25 0.216 4.025-0.05 6.253-0.746 6.253-0.682 0-1.044-2.552-0.977-6.895l0.105-6.894 4.054 0.39c6.518 0.628 3.53-0.689-4.958-2.185-4.297-0.757-7.926-1.386-8.063-1.396-0.138-0.011-0.25 0.416-0.25 0.949 0 0.532 0.563 0.831 1.25 0.663 0.688-0.167 1.004-0.146 0.704 0.047-0.3 0.194-0.364 3.222-0.14 6.73 0.243 3.831-0.06 7.118-0.76 8.234-0.932 1.485-1.081 0.407-0.744-5.385 0.609-10.453-8e-3 -11.033-9.952-9.37-16.678 2.787-42.74 11.94-52.558 18.456-4.835 3.21-7.179 6.656-4.526 6.656 0.517 0 0.67-0.705 0.34-1.565-0.472-1.23-0.119-1.43 1.642-0.935 1.443 0.406 1.791 0.315 0.975-0.255-0.95-0.664-0.7-1.163 1-1.987 1.965-0.954 5.769-1.4 5.769-0.677 0 1.057-10.287 6.246-11.478 5.79-1.095-0.421-1.526 0.076-1.537 1.772-0.013 1.889-0.208 2.059-0.985 0.857-1.442-2.231-1.2-0.416 0.479 3.604 0.814 1.947 1.854 3.308 2.312 3.025 0.459-0.283 2.108 0.32 3.666 1.343 1.557 1.021 3.78 1.647 4.937 1.389a66.096 66.096 0 0 1 4.533-0.797zm-5.87-1.133c0.644-0.775 1.599-1.144 2.123-0.82 1.164 0.72 0.3 1.701-1.765 2.004-1.204 0.177-1.28-0.073-0.358-1.184zm4.35-0.583c-0.79-1.277 2.403-4.083 3.72-3.27 0.889 0.55-1.133 4.422-2.309 4.422-0.385 0-1.02-0.518-1.412-1.152zm6.126-3.795c-0.324-0.524 0.296-1.426 1.378-2.006 1.226-0.656 2.19-0.693 2.556-0.1 0.324 0.524-0.296 1.426-1.378 2.006-1.226 0.656-2.19 0.693-2.556 0.1zm-5.963-12.94c-0.301-0.487 0.01-1.302 0.691-1.811 1.11-0.828 2.031-0.91 4.489-0.395 0.877 0.183-2.774 3.093-3.882 3.093-0.413 0-0.997-0.399-1.298-0.887zm2.43-1.113c0-0.55-0.198-1-0.441-1s-0.72 0.45-1.059 1c-0.34 0.55-0.141 1 0.441 1s1.059-0.45 1.059-1zm41.015-3.191c-8e-3 -3.13 0.435-5.97 0.985-6.309 1.306-0.807 1.306 8.48 0 10.5-0.689 1.066-0.974-0.148-0.985-4.191zm17.05 2.252c-1.03-0.651-1.37-2.56-1.201-6.735 0.306-7.571 0.883-9.326 3.065-9.326 1.374 0 1.682 0.585 1.316 2.5-0.313 1.636-0.026 2.5 0.83 2.5 0.822 0 0.634 0.493-0.507 1.327-1.264 0.924-1.853 2.745-1.942 5.999l-0.126 4.658c0-8e-3 -0.646-0.423-1.436-0.923zm1.884-9.561c0.403-0.55 0.4-2.125-8e-3 -3.5-0.66-2.223-0.753-2.264-0.841-0.375-0.055 1.169-0.267 3.419-0.471 5s-0.156 2.2 0.108 1.375c0.263-0.825 0.808-1.95 1.212-2.5zm-56.453 8.493c-0.6-0.97 0.899-1.928 3.676-2.348 0.73-0.11 1.86-0.533 2.509-0.94 0.65-0.405 1.444-0.311 1.766 0.21 0.322 0.52 0.128 1.23-0.43 1.575-0.56 0.345-1.017 0.351-1.017 0.012 0-0.338-1 0.085-2.223 0.941-2.597 1.82-3.43 1.927-4.281 0.55zm46.504-5.417c0-4.733 0.384-6.51 1.5-6.938 1.236-0.474 1.5 0.542 1.5 5.786 0 4.733-0.384 6.51-1.5 6.938-1.236 0.474-1.5-0.542-1.5-5.786zm1.716-3.326c-0.229-1.512-0.416-0.275-0.416 2.75s0.187 4.263 0.416 2.75c0.23-1.512 0.23-3.987 0-5.5zm20.743 4.824c0.235-2.362 0.732-4.582 1.104-4.934 0.373-0.352 0.492 1.016 0.266 3.04s-0.146 3.516 0.178 3.316 1.242 0.099 2.04 0.664c1.217 0.861 1.188 0.945-0.175 0.512-0.896-0.283-2.126-0.018-2.734 0.59-0.808 0.808-0.99-0.052-0.679-3.188zm2.541-5.106c0-5.29-0.269-6.132-2.186-6.841-1.562-0.578 0.212-1.008 6.215-1.509 7.867-0.656 8.504-0.563 10.032 1.463 1.414 1.874 1.715 1.946 2.254 0.54 0.353-0.919 1.747-1.621 3.22-1.621 1.428 0 3.433-0.448 4.455-0.995 2.93-1.567 30.71-3.312 37.44-2.352 4.882 0.697 3.024 0.882-10.5 1.045-9.036 0.108-18.905 0.694-21.93 1.3s-6.85 1.366-8.5 1.687-3.374 1.224-3.83 2.005c-0.647 1.106-1.146 1.16-2.25 0.243-1.098-0.911-1.816-0.87-3.17 0.177-1.425 1.104-1.396 0.94 0.155-0.877l1.905-2.233h-3.19c-2.989 0-3.116 0.142-2.02 2.25 0.644 1.238 0.814 1.916 0.377 1.509-0.436-0.408-1.361-0.27-2.056 0.307-0.974 0.808-1.13 0.538-0.682-1.178 0.474-1.812 0.259-2.101-1.16-1.557-0.958 0.368-1.93 0.669-2.16 0.669s-0.419 2.7-0.419 6c0 3.333-0.444 6-1 6s-1-2.677-1-6.032zm62.75 3.37c0.688-0.278 1.813-0.278 2.5 0 0.688 0.277 0.125 0.504-1.25 0.504s-1.938-0.227-1.25-0.504zm-56.75-2.279c0-1.132 0.45-2.059 1-2.059s1 0.648 1 1.441-0.45 1.72-1 2.059c-0.55 0.34-1-0.309-1-1.441zm52.813 1.258c0.721-0.289 1.584-0.253 1.916 0.079s-0.258 0.568-1.312 0.525c-1.165-0.048-1.402-0.285-0.604-0.604zm23.187-0.377c0-0.582 0.45-0.78 1-0.441 0.55 0.34 1 0.816 1 1.059s-0.45 0.441-1 0.441-1-0.477-1-1.059zm-7.25-1.603c0.688-0.278 1.813-0.278 2.5 0 0.688 0.277 0.125 0.504-1.25 0.504s-1.938-0.227-1.25-0.504zm-14.938-3.021c0.722-0.289 1.585-0.253 1.917 0.079s-0.258 0.568-1.312 0.525c-1.165-0.048-1.402-0.285-0.604-0.604zm-32.798-3.731c0.648-0.648 1.324-0.648 1.972 0 0.647 0.647 0.31 0.985-0.986 0.985-1.295 0-1.633-0.338-0.986-0.985zm42.736-5.248c0.688-0.278 1.813-0.278 2.5 0 0.688 0.277 0.125 0.504-1.25 0.504s-1.938-0.227-1.25-0.504zm9-1.044c1.238-0.238 3.263-0.238 4.5 0 1.238 0.239 0.225 0.434-2.25 0.434s-3.487-0.195-2.25-0.434zm15 0c1.238-0.238 3.263-0.238 4.5 0 1.238 0.239 0.225 0.434-2.25 0.434s-3.487-0.195-2.25-0.434zm35.6 31.238c0.31-0.807 0.226-1.676-0.186-1.93-0.412-0.255-0.814 0.405-0.894 1.467-0.173 2.297 0.298 2.499 1.08 0.463zm34.94-0.531c0.287-1.1 0.21-2.192-0.172-2.428-0.381-0.236-0.784 0.664-0.895 2-0.243 2.939 0.348 3.176 1.066 0.428zm-245.79-3c0.34-0.55 0.141-1-0.441-1s-1.059 0.45-1.059 1 0.198 1 0.441 1 0.72-0.45 1.059-1zm205.23 0.396c-0.333-0.332-1.196-0.368-1.918-0.08-0.797 0.32-0.56 0.557 0.605 0.605 1.054 0.043 1.644-0.193 1.312-0.525zm39.106-18.558c0.216-10.962-0.037-17.439-0.707-18.109-0.724-0.724-1.133 4.799-1.336 18.066-0.195 12.74 0.04 18.776 0.707 18.11 0.56-0.561 1.148-8.507 1.336-18.067zm2.463 16.498c-0.453-1.18-0.269-1.435 0.63-0.88 1.011 0.625 1.03 0.336 0.094-1.413-0.647-1.21-0.881-2.952-0.52-3.871 1.056-2.683 0.517-31.553-0.61-32.67-0.68-0.675-0.91 5.243-0.702 18.154 0.17 10.536-0.073 18.92-0.54 18.63-0.468-0.29-0.34 0.427 0.284 1.593 1.348 2.518 2.273 2.828 1.364 0.457zm-205.08-6.086c0.18-2.337-0.02-4.25-0.448-4.25-0.427 0-0.724 2.587-0.66 5.75 0.123 6.103 0.565 5.505 1.108-1.5zm209-1.122c-0.39-1.016-0.158-1.208 0.766-0.638 0.887 0.55 1.085 0.433 0.6-0.352-0.398-0.644-1.219-0.864-1.824-0.49-0.756 0.467-0.834 0.08-0.249-1.234 1.365-3.066 1.868-29.434 0.586-30.716-0.797-0.797-1.139 3.268-1.246 14.852-0.178 19.139-0.175 19.09-1.033 19.957-0.375 0.379-0.434 1.333-0.132 2.12 0.452 1.177 0.775 1.123 1.82-0.306 0.699-0.955 1.02-2.392 0.712-3.193zm3.797-3.618c0.465 0.287 1.171-4e-3 1.57-0.648 0.423-0.686 0.292-0.904-0.318-0.528-1.76 1.088-2.12-2.853-1.537-16.766 0.308-7.352 0.167-14.2-0.313-15.217-0.556-1.177-1.08 4.524-1.439 15.649-0.516 15.986-0.281 21.406 0.79 18.195 0.22-0.664 0.782-0.972 1.247-0.685zm3.1-5.412c0.658-1.889 1.6-2.801 2.698-2.613 0.939 0.162 3.945-1.905 6.784-4.663l5.098-4.953 19.902 0.55c10.946 0.304 27.327 1.224 36.402 2.046s17.497 1.503 18.716 1.514c1.919 0.018 8.284-4.937 8.284-6.449 0-1.787 5.187-42.425 5.65-44.275 0.312-1.24 0.356-2.255 0.098-2.255s-5.37 1.611-11.359 3.58c-21.207 6.972-52.453 24.064-64.802 35.447-2.411 2.222-4.767 3.972-5.236 3.888-2.104-0.376-3.802 0.148-2.754 0.85 0.725 0.486 0.3 1.51-1.25 3.02-1.654 1.61-2.347 1.86-2.347 0.844 0-0.932-0.682-1.263-1.93-0.937-1.192 0.312-1.717 1.065-1.37 1.966 0.341 0.892-0.173 1.658-1.32 1.967-1.034 0.279-3.005 2.008-4.38 3.843-2.342 3.125-4 3.711-4 1.414 0-0.55 0.344-0.787 0.765-0.527 0.42 0.26 0.646-2.864 0.5-6.941l-0.53-14.844c-0.147-4.087 0.058-6.905 0.455-6.263 0.415 0.672 0.651 0.239 0.557-1.019-0.126-1.666-0.472-1.93-1.456-1.115-0.71 0.59-1.306 0.68-1.324 0.2-0.019-0.48-0.863 0.12-1.876 1.334-1.014 1.215-2.06 1.991-2.324 1.726-0.265-0.265-1.002 0.145-1.637 0.91-0.889 1.071-0.807 1.68 0.358 2.647 1.24 1.029 1.512 0.973 1.512-0.309 0-0.86 0.338-1.773 0.75-2.029 1.188-0.738 0.34 26.605-0.9 29.03-1.045 2.044-0.632 5.318 0.67 5.318 0.322 0 1.04-1.306 1.596-2.902zm0.81-16.848c-0.041-7.013-0.26-13.74-0.486-14.95-0.227-1.21 0.032-2.473 0.574-2.809 0.632-0.39 0.986 4.979 0.986 14.95 0 8.557-0.225 15.559-0.5 15.559s-0.533-5.737-0.574-12.75zm20.074 2.75c-1.157-0.748-1.19-0.973-0.143-0.985 0.813-9e-3 1.118-0.637 0.761-1.567-0.327-0.853-0.205-1.31 0.273-1.016 1.078 0.667 2.164 4.574 1.265 4.553-0.36-9e-3 -1.331-0.452-2.156-0.985zm-13.333 3.917c0.092-1.33 0.251-8.157 0.354-15.172 0.103-7.016 0.59-13.005 1.083-13.31 1.377-0.85 1.134 25.927-0.248 27.31-0.859 0.858-0.665 1.018 0.775 0.641 1.752-0.458 1.945-1.663 2.214-13.764 0.245-11.075 0.035-13.477-1.276-14.564-1.23-1.021-1.883-1.042-3.02-0.098-1.13 0.937-1.52 4.64-1.75 16.624-0.194 9.966 0.055 15.3 0.701 15.085 0.55-0.184 1.075-1.422 1.167-2.752zm-21.938-9.204c0.578 0.118 1.261-0.881 1.517-2.22 0.256-1.338 0.08-2.195-0.39-1.904-0.471 0.291-0.856 0.067-0.856-0.499 0-0.565-0.787-0.782-1.75-0.483-1.667 0.518-1.667 0.49 0-0.581 0.963-0.619 1.75-1.828 1.75-2.686 0-1.144-0.504-0.939-1.885 0.767-2.136 2.637-1.683 5.325 0.74 4.395 1.045-0.4 0.797 0.24-0.714 1.848-2.218 2.36-6.743 4.432-5.583 2.557 0.308-0.499 1.182-0.907 1.942-0.907 2.148 0 2.464-1.333 0.834-3.511-1.386-1.852-1.467-1.86-1.162-0.123 0.22 1.253-0.494 2.157-2.172 2.75-2.23 0.79-2.312 0.738-0.75-0.476 1.895-1.473 2.277-2.64 0.865-2.64-0.487 0-1.658 1.18-2.604 2.623-0.945 1.443-1.273 2.348-0.728 2.011s1.52 0.027 2.168 0.807 2.04 1.253 3.092 1.05c1.053-0.202 2.243 0.162 2.643 0.81 0.464 0.751 0.958 0.275 1.36-1.311 0.347-1.37 1.104-2.394 1.683-2.277zm7.148-6.289c0.492 0.304 1.106-0.553 1.364-1.905 0.259-1.352 0.085-2.22-0.385-1.93-0.471 0.291-0.856 0.1-0.856-0.423 0-0.524 0.726-1.23 1.613-1.57 1.3-0.5 1.375-0.906 0.386-2.097-1.432-1.725-3.378-0.928-2.61 1.07 0.288 0.752 0.045 1.663-0.54 2.024-0.694 0.43-0.716 0.874-0.064 1.282 0.55 0.344-0.187 1.492-1.643 2.556l-2.642 1.932 2-2.351c1.744-2.05 1.776-2.27 0.25-1.713-1.042 0.38-1.79 0.145-1.85-0.58-0.054-0.67-0.413-0.094-0.797 1.281-0.521 1.87-0.18 2.92 1.35 4.166 1.929 1.57 2.09 1.553 2.789-0.314 0.407-1.09 1.143-1.732 1.635-1.428zm-1.502-5.222c0.271-0.439 0.08-1.451-0.426-2.25-0.765-1.21-0.92-1.166-0.934 0.267-0.01 1.182-0.561 1.542-1.765 1.155-1.477-0.475-1.516-0.394-0.25 0.516 1.801 1.296 2.715 1.38 3.375 0.312zm-8.375 78.798c0-0.55 0.477-1 1.059-1s0.78 0.45 0.441 1c-0.34 0.55-0.816 1-1.059 1s-0.441-0.45-0.441-1zm174-47.106c-31.533-2.849-29.757-2.51-30.484-5.82-0.34-1.553 0.063-7.942 0.898-14.199 0.835-6.256 1.758-14.075 2.052-17.375s0.744-8.025 1-10.5a993.74 993.74 0 0 0 1.087-11.485c0.34-3.842 0.812-7.296 1.046-7.675s-0.368-0.865-1.337-1.08 1.432-0.954 5.336-1.64c7.751-1.364 40.306-1.847 49.902-0.74 12.2 1.407 28.714 4.62 23.748 4.62-0.596 0-1.87 0.301-2.83 0.67-1.067 0.41-1.502 0.275-1.12-0.344 0.814-1.317-14.41-3.194-32.197-3.97-11.997-0.525-38.683 0.892-39.908 2.118-0.25 0.249-1.073 7.782-1.831 16.74-0.758 8.957-2.05 21.218-2.87 27.246s-1.492 12.665-1.492 14.75v3.79h4.627c2.546 0 14.808 0.94 27.25 2.089 20.56 1.899 37.32 2.121 43.623 0.58 4.146-1.014 12.142-3.974 15.927-5.896 5.288-2.686 14.533-11.519 16.213-15.49 1.99-4.707 1.664-12.397-0.805-18.995-2.743-7.332-16.471-22.022-19.502-20.868-1.41 0.537-1.562 0.425-0.656-0.488 1.641-1.654 6.6 1.553 13.214 8.546 7.134 7.544 10.502 15.115 10.513 23.634 7e-3 5.778-0.428 7.332-3.448 12.328-5.585 9.24-13.374 15.973-21.534 18.615-9.557 3.095-28.356 3.374-56.422 0.839zm-135.08-35.144c-0.297-2.15-0.144-3.375 0.36-2.872 0.482 0.483 0.715 2.17 0.518 3.75-0.33 2.643-0.4 2.573-0.877-0.878zm-0.76-9.93c-0.088-2.023 0.439-4.277 1.17-5.009 0.732-0.731 1.156-2 0.942-2.82-0.237-0.912 0.058-0.784 0.759 0.328 1.109 1.76 1.192 1.76 2.526 0 1.288-1.7 1.381-1.704 1.411-0.07 0.018 0.962-0.385 1.75-0.895 1.75s-1.132 0.787-1.384 1.75c-0.42 1.607-0.466 1.601-0.573-0.071-0.196-3.073-2.899 0.464-3.382 4.425l-0.414 3.396zm-13.61 0.291c0.522-0.488 2.075-1.182 3.45-1.541l2.5-0.654-2.5 1.506c-2.786 1.679-4.977 2.117-3.45 0.69zm11.45-6.505c0-0.216 0.698-0.661 1.552-0.989 0.89-0.341 1.291-0.173 0.94 0.393-0.586 0.95-2.492 1.406-2.492 0.596zm10.5-2.606c-0.34-0.55-0.141-1 0.441-1s1.059 0.45 1.059 1-0.198 1-0.441 1-0.72-0.45-1.059-1zm3.5-2c0-0.55 0.45-1 1-1s1 0.45 1 1-0.45 1-1 1-1-0.45-1-1zm11.158-5c0-1.375 0.227-1.938 0.504-1.25 0.278 0.688 0.278 1.813 0 2.5-0.277 0.688-0.504 0.125-0.504-1.25zm2.842-1c0-0.55 0.45-1 1-1s1 0.45 1 1-0.45 1-1 1-1-0.45-1-1zm65.5-3.458c2.2-0.692 6.7-1.526 10-1.852 5.572-0.55 5.393-0.459-2.5 1.287-9.703 2.145-13.4 2.424-7.5 0.565zm98.5 0.458c0.825-0.533 1.95-0.97 2.5-0.97s0.325 0.437-0.5 0.97-1.95 0.97-2.5 0.97-0.325-0.437 0.5-0.97zm8-2c0.825-0.533 1.95-0.97 2.5-0.97s0.325 0.437-0.5 0.97-1.95 0.97-2.5 0.97-0.325-0.437 0.5-0.97zm-7.267-3.124c0.679-0.684 1.486-0.99 1.793-0.683 0.308 0.308-0.247 0.867-1.233 1.243-1.425 0.542-1.54 0.428-0.56-0.56zm-4.84-0.317c-1.038-1.038-22.144-6.613-30.433-8.038-4.973-0.855-10.148-1.777-11.5-2.048-5.931-1.188-34.3-2.655-42.96-2.222-5.225 0.261-8.6 0.118-7.5-0.318s5.896-0.824 10.658-0.863l8.657-0.07 0.103-10.113c0.057-5.562 0.28-10.4 0.497-10.75 1.092-1.769 2.085-49.915 2.085-101.14 0-51.015-0.202-58.571-1.788-67-2.673-14.205-5.345-22.434-10.835-33.361-6.419-12.778-11.193-19.64-19.211-27.61-3.58-3.56-6.294-6.822-6.03-7.25 0.453-0.731-1.115-1.193-2.96-0.873-0.454 0.08-0.54-0.318-0.191-0.881 0.579-0.937-0.767-1.473-2.81-1.119-0.453 0.08-0.539-0.318-0.19-0.881 0.348-0.564 0.156-1.081-0.426-1.15-1.991-0.235-2.567-0.476-8.834-3.7-10.107-5.2-16.924-6.522-30.225-5.861-16.634 0.826-32.843 6.04-45.647 14.68-2.526 1.705-4.696 2.966-4.822 2.803-0.127-0.163 0.139-1.657 0.59-3.32 1.353-4.997 17.112-12.605 33.194-16.027 7.81-1.662 24.06-1.874 30.685-0.4 13.778 3.064 26.828 10.625 37.721 21.857 18.47 19.044 28.25 39.885 32.422 69.093 2.588 18.116 1.44 131.82-1.764 174.75l-0.616 8.25h6.658c14.808 0 37.199 3.567 54.172 8.631 4.899 1.462 9.661 2.689 10.584 2.727 0.922 0.039 1.414 0.495 1.093 1.014-0.332 0.537 0.345 0.7 1.575 0.379 1.187-0.31 1.906-0.156 1.597 0.342-0.583 0.944-2.783 1.232-3.55 0.466zm-271.64-60.059c-4.735-6.131-14.445-13.746-19.766-15.503-1.92-0.634-3.492-1.797-3.492-2.585s0.872-5.366 1.938-10.173c6.08-27.417 4.814-38.313-6.41-55.198-6.23-9.371-15.045-17.912-30.028-29.095-13.439-10.03-21.624-17.8-25.348-24.064-2.365-3.976-2.827-5.957-0.952-4.082 1.942 1.942 2.965 1.376 1.72-0.95l-1.151-2.151 3.108 2.214c5.457 3.885 6.564 0.588 3.141-9.36-4.22-12.269-4.386-25.629-0.437-35.474 1.482-3.695 1.897-4.105 2.526-2.5 0.628 1.604 0.764 1.642 0.823 0.23 0.038-0.93 0.407-1.894 0.82-2.143 0.412-0.248 0.814 4.618 0.892 10.813 0.157 12.496 1.986 20.697 5.986 26.835 3.94 6.047 4.86 4.494 4.971-8.398 0.083-9.486 0.57-12.938 2.886-20.416 5.815-18.778 6.579-22.158 6.602-29.209 0.02-5.769-0.567-8.614-2.934-14.25-1.628-3.872-2.7-7.041-2.385-7.041 0.316 0 1.463 0.787 2.549 1.75 1.92 1.702 1.94 1.686 0.747-0.586-2.126-4.048-0.53-3.37 4.355 1.853 6.897 7.374 8.823 12.457 9.38 24.756 0.256 5.65 0.85 10.51 1.322 10.802 0.47 0.29 0.586-0.175 0.256-1.034-0.438-1.143-0.159-1.395 1.037-0.936 1.232 0.473 1.365 0.957 0.538 1.952-0.604 0.728-1.671 1.104-2.371 0.836-0.939-0.36-1.578 2.221-2.428 9.809-1.564 13.943-1.837 20.886-0.781 19.828 0.479-0.48 0.929-2.93 1-5.446 0.07-2.514 0.392-4.575 0.714-4.578s0.686-2.784 0.809-6.178c0.422-11.72 4.6-17.238 22.475-29.685 21.312-14.84 25.63-19.324 25.63-26.612 0-6.634-2.57-13.55-7.92-21.317-2.733-3.968-4.743-7.214-4.466-7.214 1.991 0 8.768 7.24 11.4 12.179 4.254 7.98 5.047 15.82 2.173 21.455-2.721 5.334-11.389 13.212-24.412 22.19-10.156 7-20.775 16.802-20.775 19.175 0 0.616-0.338 0.91-0.75 0.655-0.905-0.561-0.776 9.726 0.186 14.858 0.479 2.551 2.503 5.623 6.627 10.055 3.265 3.51 5.937 6.969 5.937 7.685s-1.35 2.78-3 4.587c-1.65 1.806-3 2.774-3 2.15 0-0.625-0.787-0.974-1.75-0.776-0.962 0.198-2.346-0.332-3.074-1.177-1.125-1.304-1.218-1.31-0.618-0.036 0.389 0.825-1.181-0.335-3.489-2.578-2.307-2.243-4.292-4.718-4.41-5.5-0.119-0.782-0.632-2.09-1.142-2.908-1.39-2.229-1.5-8.117-0.137-7.3 0.663 0.396 0.614 0.044-0.121-0.864-0.683-0.844-1.085-1.718-0.894-1.942 0.942-1.105 1.508-6.947 0.62-6.399-0.542 0.335-0.985 0.084-0.985-0.557s0.563-0.952 1.25-0.69c0.912 0.348 1.236-1.044 1.2-5.142-0.028-3.091 0.365-6.183 0.872-6.87 0.6-0.811 0.517-1.25-0.235-1.25-0.834 0-0.869-0.54-0.122-1.934 2.229-4.166 0.274-21.793-2.69-24.253-1.16-0.962-1.41-0.914-1.245 0.24 0.467 3.26-0.082 10.033-0.78 9.612-0.412-0.25-0.835 1.818-0.94 4.595-0.108 2.884-0.751 5.404-1.5 5.879-1.033 0.655-0.993 0.837 0.19 0.861 0.883 0.018 1.089 0.333 0.5 0.765-1.33 0.978-1.42 2.886-1.416 29.899 2e-3 12.876-0.401 23.414-0.908 23.727-1.087 0.672-4.931-11.21-5.464-16.891l-0.376-4-0.168 4.645c-0.173 4.792 3.137 17.307 4.86 18.372 0.534 0.33 0.972 0.098 0.972-0.517s0.42-0.858 0.934-0.54c0.568 0.35 0.972-8.918 1.031-23.64 0.054-13.318 0.329-24.447 0.612-24.73 0.284-0.284 0.449 12.189 0.367 27.717-0.129 24.544 0.064 28.556 1.477 30.713 1.675 2.555 1.161 3.134-1.363 1.537-2.37-1.5-4.008 1.864-3.87 7.943l0.126 5.5 1.372-10 0.333 7 0.334 7 0.685-7 0.684-7-0.021 7.257c-0.012 3.99 0.276 7.553 0.639 7.916s0.645 1.148 0.627 1.744c-0.049 1.582-3.967-3.384-3.967-5.028 0-0.764-0.45-1.389-1-1.389-1.422 0-1.245-11.355 0.2-12.8 0.933-0.933 0.656-1.222-1.25-1.3l-2.45-0.1 2.5-0.8c2.484-0.796 2.481-0.801-0.417-0.9-1.604-0.055-2.615-0.402-2.246-0.77 0.368-0.369-0.022-1.727-0.868-3.018-1.399-2.134-1.387-2.406 0.124-2.986 1.685-0.647 5.339 2.961 5.385 5.317 0.02 1.022 3.022 2.89 3.022 1.88 0-0.23-1.53-3.027-3.4-6.22-1.87-3.191-4.086-8.278-4.924-11.303-1.805-6.514-2.812-17.732-1.418-15.793 0.661 0.918 0.758 0.762 0.336-0.539-0.327-1.007-0.65-3.257-0.72-5-0.105-2.687-0.246-2.485-0.926 1.332-0.441 2.475-0.553 7.886-0.25 12.024 0.468 6.382 0.286 7.745-1.2 8.978-1.58 1.31-2.027 1.126-4.516-1.855-1.52-1.82-3.033-2.874-3.362-2.342-0.329 0.533 0.113 1.558 0.981 2.28 1.433 1.188 1.42 1.427-0.149 2.574-1.25 0.914-2.267 0.975-3.673 0.223-1.818-0.973-1.837-1.16-0.289-2.871 1.543-1.705 1.538-1.896-0.071-2.797-1.114-0.623-1.491-1.584-1.062-2.703 0.53-1.379 0.96-1.492 2.095-0.55 0.786 0.652 1.188 1.94 0.894 2.862-0.447 1.401-0.364 1.436 0.502 0.21 0.72-1.016 0.71-1.86-0.028-2.75-0.586-0.705-0.73-1.283-0.32-1.283s0.244-0.604-0.369-1.342c-0.612-0.738-0.78-1.71-0.372-2.16 0.407-0.45 0.149-0.476-0.576-0.058-0.724 0.418-1.083 0.994-0.797 1.28 0.285 0.285-0.144 1.181-0.955 1.992-1.151 1.151-1.365 3.305-0.978 9.838 0.272 4.6 0.1 8.608-0.384 8.907-0.483 0.299-0.7 2.409-0.48 4.688 0.344 3.571 1.26 4.95 6.609 9.963 3.415 3.2 6.403 5.624 6.64 5.387s-0.082-1.683-0.71-3.213c-1.97-4.803-1.501-14.324 0.743-15.072 1.747-0.583 3.983 1.606 3.663 3.584-0.153 0.938 0.162 2.258 0.698 2.933s0.802 4.408 0.59 8.295l-0.385 7.067 5.281 3.988c2.905 2.193 5.296 3.636 5.312 3.205 0.017-0.43 0.49 5e-3 1.05 0.968 0.56 0.962 1.499 1.75 2.085 1.75 0.598 0 0.341-1.105-0.587-2.522-1.308-1.995-1.584-4.447-1.323-11.75l0.33-9.228 0.207 9.696 0.208 9.696 6.75 6.726c4.684 4.667 5.123 5.265 1.435 1.953-7.185-6.452-7.738-5.153-0.658 1.543 11.577 10.95 20.399 25.45 22.487 36.96 1.36 7.499 0.784 14.504-2.6 31.66-1.328 6.728-2.414 12.413-2.414 12.632 0 0.22 2.587 1.661 5.75 3.204 3.426 1.671 8.769 5.76 13.22 10.117 4.109 4.022 7.648 7.313 7.866 7.313 0.217 0 3.606-3.317 7.53-7.37 6.713-6.936 15.92-12.988 18.84-12.387 0.686 0.141 1.413-0.868 1.616-2.243s0.012-2.148-0.426-1.717-1.827-4.069-3.086-10c-2.596-12.227-3.22-28.365-1.36-35.166 4.386-16.034 16.114-30.508 38.05-46.96 6.325-4.744 13.637-10.606 16.25-13.028 2.612-2.421 4.75-4.046 4.75-3.61 0 0.435 1.012-0.063 2.25-1.107 2.033-1.714 2.016-1.633-0.17 0.841-1.332 1.507-2.63 2.531-2.883 2.277-0.255-0.254-1.356 0.674-2.449 2.063-1.092 1.389-7.445 6.617-14.117 11.618-13.972 10.472-28.67 24.965-33.393 32.926-5.99 10.097-7.58 16.095-7.52 28.363 0.036 7.436 0.764 14.24 2.246 21 3.75 17.114 3.771 15.581-0.214 15.9-0.688 0.055-1.475 0.325-1.75 0.6s-2.197 1.363-4.271 2.419c-2.074 1.055-7.577 5.893-12.228 10.75-4.65 4.857-8.803 8.83-9.228 8.827-0.425-2e-3 -2.682-2.475-5.015-5.496zm-60.077-128c-0.272-8.116-0.563-9.5-2-9.487-1.26 0.012-1.357 0.221-0.39 0.835 0.897 0.569 1.239 3.127 1.117 8.365-0.145 6.268 0.357 9.775 1.401 9.787 0.105 1e-3 0.048-4.274-0.128-9.5zm1.544-0.734c-0.223-1.797-0.41-0.568-0.415 2.732-6e-3 3.3 0.176 4.77 0.405 3.268 0.228-1.503 0.232-4.203 0.01-6zm-3.795-1.518c-0.04-3.305-0.37-4.993-0.774-3.97-0.691 1.75-0.323 9.72 0.449 9.72 0.217 0 0.363-2.587 0.325-5.75zm7.899-7.153c-0.72-1.153-1.955-2.097-2.744-2.097-1.002 0-0.727 0.752 0.911 2.496 2.712 2.886 3.744 2.662 1.833-0.399zm3.295-2.364c-0.988-0.98-1.102-0.865-0.56 0.56 0.376 0.986 0.935 1.541 1.243 1.233 0.308-0.307 0-1.114-0.683-1.793zm-1.543-11.486c-1.154-1.153-1.746 0.654-0.96 2.928l0.805 2.325 0.368-2.336c0.202-1.285 0.106-2.597-0.213-2.917zm-16.655 1.027c1.39 1.083 1.413 1.02 0.191-0.536-1.06-1.353-1.7-1.499-2.75-0.628-0.752 0.624-1.367 1.395-1.367 1.712 0 0.318 0.53 0.049 1.176-0.598 0.902-0.902 1.544-0.89 2.75 0.05zm15.109-17.024c-0.026-8.113 0.406-16.962 0.96-19.666 0.553-2.704 0.847-5.076 0.65-5.271-0.766-0.768-4.83 15.592-4.185 16.848 0.379 0.737-0.05 0.439-0.952-0.661-1.608-1.961-1.63-1.951-1.131 0.5 0.522 2.567 2.165 12.588 3.156 19.25 1.068 7.178 1.548 3.657 1.502-11zm-2.956-2.833c0.048-1.165 0.285-1.402 0.604-0.604 0.289 0.721 0.253 1.584-0.079 1.916s-0.568-0.258-0.525-1.312zm4.664-2.623c-0.19-4.012-0.347-0.994-0.348 6.706-2e-3 7.7 0.154 10.982 0.346 7.294 0.191-3.689 0.193-9.989 3e-3 -14zm15.652 19.036c-0.513-0.83-0.167-0.931 1.191-0.348 1.053 0.453 3.376 1.028 5.164 1.28 5.28 0.742 4.332-2.946-2.407-9.37-6.024-5.742-8.343-6.666-8.343-3.326 0 1.136-0.451 2.909-1.003 3.94-0.701 1.31-0.655 2.088 0.155 2.588 0.718 0.444 0.886 0.277 0.443-0.44-0.392-0.634-0.208-1.154 0.409-1.154s0.98 0.851 0.809 1.892c-0.172 1.04 0.544 2.84 1.592 4 2.076 2.298 3.14 2.799 1.99 0.938zm4.605-0.801c0-1.24 2.614-3.081 3.342-2.354 1.17 1.17 0.703 2.08-1.342 2.615-1.1 0.287-2 0.17-2-0.261zm-7.128-1.779c-1.243-1.586-1.208-1.621 0.378-0.378 0.963 0.755 1.75 1.543 1.75 1.75 0 0.823-0.821 0.294-2.128-1.372zm5.365-10.504c-2.527-2.696-4.237-6.926-4.237-10.478 0-4.153-0.841-2.172-1.491 3.513-0.349 3.05-0.202 5.219 0.353 5.219 0.523 0 0.701-1.013 0.397-2.25-0.305-1.238-0.273-1.998 0.07-1.69 0.345 0.31 0.784 1.6 0.978 2.868 0.332 2.18 4.664 6.435 5.599 5.5 0.24-0.24-0.512-1.447-1.669-2.682zm-4.544-18.477c-0.254-0.973-0.478-0.419-0.498 1.231s0.187 2.446 0.46 1.769c0.275-0.677 0.292-2.027 0.038-3zm19.766 165.66c-1.026-1.66-0.105-1.89 1.33-0.332 0.71 0.77 0.849 1.399 0.31 1.399-0.54 0-1.278-0.48-1.64-1.067zm0.699-4.933c0-1.375 0.227-1.938 0.504-1.25 0.278 0.688 0.278 1.813 0 2.5-0.277 0.688-0.504 0.125-0.504-1.25zm213.07-3c0-1.925 0.206-2.712 0.457-1.75 0.252 0.963 0.252 2.538 0 3.5-0.251 0.963-0.457 0.175-0.457-1.75zm-1.153-7.583c0.048-1.165 0.285-1.402 0.604-0.604 0.289 0.721 0.253 1.584-0.079 1.916s-0.568-0.258-0.525-1.312zm-202.76-43.917c-0.647-1.65-1.447-5.036-1.777-7.525s-1.375-5.678-2.323-7.088c-13.427-19.98-13.223-19.607-13.175-24.04l0.047-4.347 1.833 4.69c1.009 2.579 3.99 7.754 6.624 11.5 2.635 3.745 5.809 8.291 7.053 10.101 2.3 3.345 3.846 11.351 3.234 16.739l-0.338 2.97zm30.112-2c-0.862-4.598 0.129-9.543 2.855-14.25 3.906-6.74 12.977-19.317 13.533-18.761 0.296 0.296-2.42 4.92-6.037 10.275-8.172 12.1-8.427 12.612-9.303 18.736-0.91 6.354-0.328 5.81 7.912-7.406 6.394-10.257 7.856-14.247 9.192-25.094 0.59-4.796 0.794-5.185 1.591-3.04 1.414 3.805-0.662 14.499-3.872 19.952-8.874 15.073-13.888 23.043-14.51 23.064-0.387 0.013-1-1.551-1.361-3.476zm-35.188-3c-0.69-0.784-1.775-2.567-2.41-3.962-0.637-1.396-1.535-2.538-1.997-2.538-0.461 0-0.839-0.59-0.839-1.311 0-0.722-0.787-2.207-1.75-3.301-2.474-2.812-4.25-6.104-4.25-7.874 0-0.833-0.358-1.514-0.796-1.514-0.437 0-0.901-1.575-1.03-3.5-0.311-4.61 1.399-4.52 2.15 0.113 0.323 1.987 3.532 8.321 7.131 14.076 3.6 5.754 6.545 10.653 6.545 10.887 0 0.894-1.554 0.287-2.754-1.076zm-27.9-27.043c-0.327-0.849-0.37-1.767-0.097-2.04 0.274-0.273 0.737 0.422 1.03 1.543 0.624 2.383-0.069 2.751-0.934 0.497zm-5.998-10.457c0-4.675 0.173-6.588 0.383-4.25 0.21 2.337 0.21 6.162 0 8.5-0.21 2.337-0.383 0.425-0.383-4.25zm3.854-0.5c-0.12-4.11-1.03-9.172-2.203-12.26-1.579-4.153-2-7.683-2-16.75 0-6.32 0.338-11.49 0.75-11.491s0.711 5.286 0.663 11.75l-0.086 11.751 0.586-10.32c0.573-10.071 0.625-10.25 2.177-7.5 1.295 2.3 1.456 4.483 0.87 11.82l-0.717 9 0.064-9.731c0.035-5.353-0.245-10.04-0.622-10.417s-0.756 3.777-0.843 9.231c-0.194 12.14-0.065 13.66 1.226 14.459 0.606 0.375 0.88 4.035 0.679 9.044l-0.34 8.414zm2.133-1.5c0-4.125 0.177-5.813 0.392-3.75 0.216 2.063 0.216 5.438 0 7.5-0.215 2.063-0.392 0.375-0.392-3.75zm-14.026-0.5c6e-3 -3.3 0.192-4.53 0.415-2.732 0.222 1.797 0.218 4.497-0.01 6-0.229 1.503-0.41 0.032-0.405-3.268zm27.769 3.917c0.048-1.165 0.285-1.402 0.604-0.604 0.289 0.721 0.253 1.584-0.079 1.916s-0.568-0.258-0.525-1.312zm107.93-12.167c6e-3 -0.963 1.179-4.225 2.606-7.25 5.695-12.068 7.657-18.514 8.37-27.5l0.714-9 0.15 6.856c0.18 8.138-1.607 15.59-6.438 26.857-1.954 4.558-3.837 8.96-4.184 9.784-0.793 1.883 2.93-0.474 10.529-6.662 2.927-2.384 5.867-4.3 6.533-4.256 0.9 0.059 0.889 0.209-0.045 0.585-0.691 0.279-0.96 0.988-0.596 1.576 0.372 0.602 0.193 0.78-0.409 0.408-1.065-0.658-6.968 3.587-8.591 6.179-0.735 1.173-6.569 4.173-8.116 4.173-0.293 0-0.528-0.787-0.522-1.75zm-153.86-0.2c0.43-1.29 1.801-1.52 1.925-0.325 0.041 0.399-0.465 0.905-1.125 1.125s-1.02-0.14-0.8-0.8zm32.178-11.55c4e-3 -3.85 0.185-5.302 0.402-3.228 0.216 2.075 0.213 5.225-8e-3 7-0.221 1.776-0.398 0.078-0.394-3.772zm-25.775-1.415a1.117 1.117 0 0 1 0.362-1.532 1.117 1.117 0 0 1 1.532 0.362c0.322 0.52 0.16 1.21-0.362 1.532-0.52 0.322-1.21 0.16-1.532-0.362zm105.74-12.192c-3.563-1.03-6.316-4.271-6.256-7.366 0.03-1.517 0.386-1.23 1.419 1.144 1.603 3.686 4.196 5.329 8.409 5.329 1.97 0 3.196-0.6 3.574-1.75 0.762-2.315 7.473-10.056 7.521-8.676 0.021 0.59-1.538 3.29-3.464 6-3.732 5.25-2.988 7.37 1.139 3.244 3.426-3.426 4.346-10.748 3.088-24.576l-1.036-11.385-2.308 2.821-2.31 2.822-0.067-3c-0.037-1.65-0.712-3.851-1.5-4.891-1.79-2.366-1.096-11.563 1.21-16.023 1.564-3.024 8.901-10.588 26.873-27.704 9.933-9.459 14.856-16.106 16.534-22.323 1.427-5.287 1.342-15.435-0.184-21.915-2.644-11.232-6.105-15.703-28.177-36.403-5.246-4.92-8.715-9.19-10.764-13.25-1.663-3.295-2.831-5.991-2.595-5.991s1.855 2.362 3.598 5.25 9.865 11.775 18.048 19.75c12.568 12.248 15.346 15.51 17.89 21 5.516 11.912 6.191 28.052 1.549 37.03-3.291 6.363-11.408 15.562-22.273 25.24-6.49 5.781-13.753 13.043-16.14 16.138-3.952 5.121-4.386 6.252-4.841 12.609-0.296 4.142-0.11 6.983 0.46 6.983 1.993 0 5.36-4.811 6.83-9.756 1.704-5.74 9.016-14.522 14.623-17.565 1.846-1.002 2.575-1.182 1.622-0.401-0.954 0.78-1.442 1.713-1.084 2.07 0.358 0.359 0.128 0.652-0.512 0.652-2.334 0-8.984 7.14-10.987 11.797-2.445 5.683-2.745 10.516-1.695 27.31 0.946 15.129 0.368 18.849-3.64 23.414-2.606 2.968-3.664 3.466-7.202 3.389-2.28-0.05-5.588-0.507-7.351-1.017zm-67.423-7.643c-1.243-1.586-1.208-1.621 0.378-0.378 1.666 1.307 2.195 2.128 1.372 2.128-0.207 0-0.995-0.787-1.75-1.75zm66.129-2.25c-1.097-0.709-0.342-0.973 2.809-0.985 2.621-9e-3 4.067 0.377 3.691 0.985-0.784 1.268-4.537 1.268-6.5 0zm-69.264-1.25c-0.905-0.688-2.116-2.517-2.691-4.065-1.538-4.143-1.245-13.836 0.487-16.126 0.807-1.068 1.468-1.432 1.468-0.81 0 0.624-0.45 1.411-1 1.751-1.315 0.813-1.287 11.614 0.04 15.103 0.57 1.504 1.808 3.319 2.75 4.034 0.94 0.715 1.459 1.314 1.151 1.331-0.307 0.018-1.3-0.53-2.205-1.218zm63.303 0.968c-0.134-2.682 3.096-7.531 5.747-8.63 5.153-2.134 9.619 2.107 6.014 5.712-1.829 1.829-2.383 1.462-2.34-1.55 0.03-2.055-0.495-2.826-2.078-3.052-1.58-0.226-2.775 0.789-4.71 4-1.427 2.366-2.612 3.95-2.633 3.52zm15.936-1.693c2.72-2.72 3.389-6.108 2.738-13.88-0.339-4.046-0.224-5.863 0.295-4.645 1.677 3.94 1.107 13.799-0.997 17.25-1.09 1.788-2.438 3.25-2.996 3.25s-0.126-0.889 0.96-1.975zm-94.896-1.608c0.048-1.165 0.285-1.402 0.604-0.604 0.289 0.721 0.253 1.584-0.079 1.916s-0.568-0.258-0.525-1.312zm140-7c0.048-1.165 0.285-1.402 0.604-0.604 0.289 0.721 0.253 1.584-0.079 1.916s-0.568-0.258-0.525-1.312zm-1-5c0.048-1.165 0.285-1.402 0.604-0.604 0.289 0.721 0.253 1.584-0.079 1.916s-0.568-0.258-0.525-1.312zm-139.08-6.193c0-8.256 1.812-23.416 2.934-24.55 1.17-1.182 2.348 9.695 1.557 14.38-0.367 2.17-1.077 3.946-1.579 3.946-1.232 0-1.163-2.727 0.088-3.5 1.246-0.77 1.334-9.5 0.096-9.5-1.03 0-2.583 19.674-1.853 23.489 0.264 1.381 0.092 2.511-0.382 2.511-0.473 0-0.861-3.05-0.861-6.776zm46.763 3.21c-3.026-1.64-5.763-6.153-5.763-9.498 0-4.142 4.152-9.454 11.675-14.936 14.86-10.828 18.408-17.551 14.988-28.398-1.67-5.298-3.691-8.354-9.722-14.703-2.613-2.751-3.097-3.711-1.819-3.615 0.957 0.072 1.548 0.44 1.314 0.819-0.233 0.378 0.235 0.94 1.04 1.25 3.113 1.194 10.375 12.612 11.515 18.105 2.082 10.028-1.145 15.746-15.36 27.215-12.526 10.105-14.437 14.675-8.588 20.524 2.808 2.808 3.467 3.008 8.51 2.59 5.93-0.492 10.242-3.217 15.636-9.881 7.34-9.069 9.69-28.113 5.927-48.017-2.375-12.563-1.976-18.323 1.782-25.689 2.593-5.083 3.85-6.003 11.294-8.266 7.12-2.165 8.996-2.395 6.808-0.832-1.194 0.853-1.02 0.966 0.849 0.552 1.292-0.285 2.083-0.253 1.759 0.072-0.325 0.324-0.032 1.306 0.65 2.182 1.098 1.407 1.04 1.433-0.503 0.224-2.257-1.77-8.827-1.663-12.434 0.202-4.45 2.301-6.136 4.782-7.882 11.596-1.546 6.035-1.523 6.913 0.468 18.005 3.257 18.145 2.46 32.141-2.443 42.9-6.717 14.74-20.222 22.743-29.701 17.6zm89.237-3.492c0-1.132 0.43-1.793 0.956-1.468s0.703 1.252 0.393 2.059c-0.793 2.067-1.349 1.824-1.349-0.591zm-19-26.296c0-1.542 3.091-6.645 4.026-6.645 1.359 0 1.288 0.186-1.526 4-1.375 1.864-2.5 3.054-2.5 2.645zm-19.5-34.748c-9.433-2.9-13.418-16.077-5.745-18.994 5.272-2.004 8.396 1.84 4.418 5.44-1.734 1.57-1.804 1.503-1.386-1.345 0.363-2.475 0.092-2.998-1.552-2.998-1.281 0-2.447 1.096-3.265 3.072-2.585 6.241 4.238 13.916 12.379 13.924 7.86 8e-3 14.75-5.602 19.426-15.816 2.1-4.586 2.403-6.449 1.99-12.218-0.605-8.453-3.222-13.34-16.485-30.777-5.267-6.925-10.647-14.93-11.957-17.79-2.683-5.862-3.921-16.367-2.462-20.895 0.923-2.863 0.973-2.886 1.098-0.5 0.13 2.47 0.149 2.463 1.576-0.5 1.093-2.27 1.265-2.39 0.705-0.5-0.407 1.375-0.687 5.275-0.623 8.667 0.162 8.578 3.95 16.17 15.916 31.902 12.373 16.267 14.94 21.58 14.944 30.931 3e-3 6.071-0.45 7.839-3.414 13.32-3.93 7.271-10.695 13.706-15.94 15.163-4.23 1.174-5.564 1.162-9.623-0.086zm-45.138-9.397c-0.317-0.825-1.133-1.5-1.814-1.5-0.68 0-2.053-0.9-3.048-2-2.854-3.153-0.425-2.318 4.39 1.51 2.74 2.178 3.763 3.49 2.72 3.49-0.92 0-1.932-0.675-2.248-1.5zm47.93-7.106c0.458-0.694 0.248-1.418-0.5-1.718-0.849-0.34-0.714-0.545 0.392-0.597 1.04-0.049 1.842-1.128 2.1-2.829l0.416-2.75 0.15 2.64c0.083 1.45-0.638 3.497-1.6 4.546-0.963 1.05-1.394 1.368-0.958 0.708zm-0.134-5.395c0-1.375 0.227-1.938 0.504-1.25 0.278 0.688 0.278 1.813 0 2.5-0.277 0.688-0.504 0.125-0.504-1.25zm-3.08-74.583c0.049-1.165 0.286-1.402 0.605-0.604 0.289 0.721 0.253 1.584-0.079 1.916s-0.568-0.258-0.525-1.312z"/>
   </g>
  </g>
  <g transform="matrix(.026159 0 0 .026159 -80.236 328.4)" fill="none" letter-spacing="0" stroke="#000" stroke-width="13.627" word-spacing="0">
   <g font-family="KacstDigital" font-size="2023.5px" font-weight="500">
    <path d="m13335-4505.4q-220.33 0-305.3 50.389-84.969 50.389-84.969 171.92 0 96.826 63.233 154.13 64.221 56.317 173.89 56.317 151.17 0 242.06-106.71 91.886-107.69 91.886-285.54v-40.508zm362.6-75.09v631.34h-181.8v-167.96q-62.245 100.78-155.12 149.19-92.874 47.426-227.24 47.426-169.94 0-270.72-94.85-99.79-95.838-99.79-255.9 0-186.74 124.49-281.59 125.48-94.85 373.47-94.85h254.91v-17.784q0-125.48-82.993-193.65-82.006-69.162-231.2-69.162-94.85 0-184.76 22.725-89.91 22.724-172.9 68.173v-167.96q99.79-38.533 193.65-57.306 93.862-19.76 182.78-19.76 240.09 0 358.65 124.49 118.56 124.49 118.56 377.42z"/>
    <path d="m14935-4843.3q68.173-122.52 163.02-180.81t223.29-58.293q172.9 0 266.76 121.53 93.862 120.54 93.862 343.83v667.9h-182.78v-661.97q0-159.07-56.317-236.14-56.317-77.066-171.92-77.066-141.29 0-223.29 93.862-82.005 93.862-82.005 255.9v625.42h-182.78v-661.97q0-160.06-56.317-236.14-56.317-77.066-173.89-77.066-139.31 0-221.32 94.85-82.006 93.862-82.006 254.91v625.42h-182.78v-1106.6h182.78v171.92q62.245-101.77 149.19-150.18t206.5-48.413q120.54 0 204.52 61.257 84.969 61.257 125.48 177.84z"/>
    <path d="m16045-5055.7h181.8v1106.6h-181.8zm0-430.78h181.8v230.21h-181.8z"/>
    <path d="m16607-5486.5h181.8v1537.4h-181.8v-1537.4z"/>
   </g>
   <g font-family="sans-serif" font-size="1955.1px" font-weight="400">
    <path d="m12485-1389.4v85.918h-807.63q11.455 181.38 108.83 276.85 98.328 94.51 273.03 94.51 101.19 0 195.7-24.82 95.464-24.821 189.02-74.463v166.11q-94.51 40.095-193.79 61.097-99.283 21.002-201.43 21.002-255.85 0-405.73-148.92-148.92-148.92-148.92-402.86 0-262.53 141.29-416.23 142.24-154.65 382.81-154.65 215.75 0 340.81 139.38 126.01 138.42 126.01 377.09zm-175.66-51.551q-1.91-144.15-81.146-230.07-78.281-85.918-208.11-85.918-147.02 0-235.8 83.054-87.827 83.054-101.19 233.89z"/>
    <path d="m13393-1715.9q-29.594-17.183-64.916-24.82-34.368-8.592-76.372-8.592-148.92 0-229.12 97.374-79.236 96.42-79.236 277.8v563.24h-176.61v-1069.2h176.61v166.11q55.369-97.374 144.15-144.15 88.782-47.733 215.75-47.733 18.138 0 40.095 2.864 21.957 1.91 48.687 6.683z"/>
    <path d="m13562-1880.1h186.16l334.13 897.37 334.13-897.37h186.16l-400.95 1069.2h-238.66l-400.95-1069.2z"/>
    <path d="m14845-1880.1h175.66v1069.2h-175.66zm0-416.23h175.66v222.43h-175.66z"/>
    <path d="m16156-1839v164.2q-74.463-41.05-149.88-61.098-74.463-21.003-150.84-21.003-170.88 0-265.39 108.83-94.51 107.88-94.51 303.58t94.51 304.53q94.511 107.88 265.39 107.88 76.372 0 150.84-20.047 75.417-21.003 149.88-62.053v162.29q-73.508 34.368-152.74 51.552-78.281 17.183-167.06 17.183-241.53 0-383.77-151.79-142.24-151.79-142.24-409.54 0-261.57 143.2-411.45 144.15-149.88 394.27-149.88 81.145 0 158.47 17.184 77.326 16.23 149.88 49.642z"/>
    <path d="m17378-1389.4v85.918h-807.63q11.456 181.38 108.83 276.85 98.329 94.51 273.03 94.51 101.19 0 195.7-24.82 95.465-24.821 189.02-74.463v166.11q-94.51 40.095-193.79 61.097-99.284 21.002-201.43 21.002-255.85 0-405.72-148.92-148.92-148.92-148.92-402.86 0-262.53 141.29-416.23 142.24-154.65 382.81-154.65 215.75 0 340.81 139.38 126.01 138.42 126.01 377.09zm-175.66-51.551q-1.909-144.15-81.145-230.07-78.281-85.918-208.11-85.918-147.02 0-235.8 83.054-87.828 83.054-101.19 233.89z"/>
    <path d="m18348-1848.6v166.11q-74.463-38.186-154.65-57.279t-166.11-19.093q-130.79 0-196.66 40.095-64.916 40.096-64.916 120.29 0 61.097 46.777 96.42 46.778 34.367 188.07 65.87l60.143 13.365q187.11 40.095 265.39 113.6 79.236 72.553 79.236 203.34 0 148.92-118.38 235.8-117.42 86.873-323.62 86.873-85.918 0-179.47-17.183-92.601-16.23-195.7-49.642v-181.38q97.374 50.596 191.88 76.372 94.511 24.82 187.11 24.82 124.1 0 190.93-42.004 66.825-42.96 66.825-120.29 0-71.598-48.687-109.78-47.732-38.186-210.98-73.508l-61.097-14.32q-163.24-34.367-235.8-105.01-72.554-71.599-72.554-195.7 0-150.83 106.92-232.93t303.58-82.1q97.374 0 183.29 14.32 85.919 14.32 158.47 42.96z"/>
   </g>
  </g>
  <g transform="matrix(.026159 0 0 .026159 -80.793 328.13)" letter-spacing="0" word-spacing="0">
   <g fill="url(#rewardj)" font-family="KacstDigital" font-size="2023.5px" font-weight="500">
    <path d="m13335-4505.4q-220.33 0-305.3 50.389-84.969 50.389-84.969 171.92 0 96.826 63.233 154.13 64.221 56.317 173.89 56.317 151.17 0 242.06-106.71 91.886-107.69 91.886-285.54v-40.508zm362.6-75.09v631.34h-181.8v-167.96q-62.245 100.78-155.12 149.19-92.874 47.426-227.24 47.426-169.94 0-270.72-94.85-99.79-95.838-99.79-255.9 0-186.74 124.49-281.59 125.48-94.85 373.47-94.85h254.91v-17.784q0-125.48-82.993-193.65-82.006-69.162-231.2-69.162-94.85 0-184.76 22.725-89.91 22.724-172.9 68.173v-167.96q99.79-38.533 193.65-57.306 93.862-19.76 182.78-19.76 240.09 0 358.65 124.49 118.56 124.49 118.56 377.42z"/>
    <path d="m14935-4843.3q68.173-122.52 163.02-180.81t223.29-58.293q172.9 0 266.76 121.53 93.862 120.54 93.862 343.83v667.9h-182.78v-661.97q0-159.07-56.317-236.14-56.317-77.066-171.92-77.066-141.29 0-223.29 93.862-82.005 93.862-82.005 255.9v625.42h-182.78v-661.97q0-160.06-56.317-236.14-56.317-77.066-173.89-77.066-139.31 0-221.32 94.85-82.006 93.862-82.006 254.91v625.42h-182.78v-1106.6h182.78v171.92q62.245-101.77 149.19-150.18t206.5-48.413q120.54 0 204.52 61.257 84.969 61.257 125.48 177.84z"/>
    <path d="m16045-5055.7h181.8v1106.6h-181.8zm0-430.78h181.8v230.21h-181.8z"/>
    <path d="m16607-5486.5h181.8v1537.4h-181.8v-1537.4z"/>
   </g>
   <g font-family="sans-serif" font-size="1955.1px" font-weight="400">
    <path d="m12485-1389.4v85.918h-807.63q11.455 181.38 108.83 276.85 98.328 94.51 273.03 94.51 101.19 0 195.7-24.82 95.464-24.821 189.02-74.463v166.11q-94.51 40.095-193.79 61.097-99.283 21.002-201.43 21.002-255.85 0-405.73-148.92-148.92-148.92-148.92-402.86 0-262.53 141.29-416.23 142.24-154.65 382.81-154.65 215.75 0 340.81 139.38 126.01 138.42 126.01 377.09zm-175.66-51.551q-1.91-144.15-81.146-230.07-78.281-85.918-208.11-85.918-147.02 0-235.8 83.054-87.827 83.054-101.19 233.89z" fill="url(#rewardg)"/>
    <path d="m13393-1715.9q-29.594-17.183-64.916-24.82-34.368-8.592-76.372-8.592-148.92 0-229.12 97.374-79.236 96.42-79.236 277.8v563.24h-176.61v-1069.2h176.61v166.11q55.369-97.374 144.15-144.15 88.782-47.733 215.75-47.733 18.138 0 40.095 2.864 21.957 1.91 48.687 6.683z" fill="url(#rewardg)"/>
    <g fill="url(#rewardi)">
     <path d="m13562-1880.1h186.16l334.13 897.37 334.13-897.37h186.16l-400.95 1069.2h-238.66l-400.95-1069.2z"/>
     <path d="m14845-1880.1h175.66v1069.2h-175.66zm0-416.23h175.66v222.43h-175.66z"/>
     <path d="m16156-1839v164.2q-74.463-41.05-149.88-61.098-74.463-21.003-150.84-21.003-170.88 0-265.39 108.83-94.51 107.88-94.51 303.58t94.51 304.53q94.511 107.88 265.39 107.88 76.372 0 150.84-20.047 75.417-21.003 149.88-62.053v162.29q-73.508 34.368-152.74 51.552-78.281 17.183-167.06 17.183-241.53 0-383.77-151.79-142.24-151.79-142.24-409.54 0-261.57 143.2-411.45 144.15-149.88 394.27-149.88 81.145 0 158.47 17.184 77.326 16.23 149.88 49.642z"/>
     <path d="m17378-1389.4v85.918h-807.63q11.456 181.38 108.83 276.85 98.329 94.51 273.03 94.51 101.19 0 195.7-24.82 95.465-24.821 189.02-74.463v166.11q-94.51 40.095-193.79 61.097-99.284 21.002-201.43 21.002-255.85 0-405.72-148.92-148.92-148.92-148.92-402.86 0-262.53 141.29-416.23 142.24-154.65 382.81-154.65 215.75 0 340.81 139.38 126.01 138.42 126.01 377.09zm-175.66-51.551q-1.909-144.15-81.145-230.07-78.281-85.918-208.11-85.918-147.02 0-235.8 83.054-87.828 83.054-101.19 233.89z"/>
     <path d="m18348-1848.6v166.11q-74.463-38.186-154.65-57.279t-166.11-19.093q-130.79 0-196.66 40.095-64.916 40.096-64.916 120.29 0 61.097 46.777 96.42 46.778 34.367 188.07 65.87l60.143 13.365q187.11 40.095 265.39 113.6 79.236 72.553 79.236 203.34 0 148.92-118.38 235.8-117.42 86.873-323.62 86.873-85.918 0-179.47-17.183-92.601-16.23-195.7-49.642v-181.38q97.374 50.596 191.88 76.372 94.511 24.82 187.11 24.82 124.1 0 190.93-42.004 66.825-42.96 66.825-120.29 0-71.598-48.687-109.78-47.732-38.186-210.98-73.508l-61.097-14.32q-163.24-34.367-235.8-105.01-72.554-71.599-72.554-195.7 0-150.83 106.92-232.93t303.58-82.1q97.374 0 183.29 14.32 85.919 14.32 158.47 42.96z"/>
    </g>
   </g>
  </g>
 </g>
</svg>
