<?xml version="1.0" standalone="no"?>
<!DOCTYPE svg PUBLIC "-//W3C//DTD SVG 20010904//EN"
 "http://www.w3.org/TR/2001/REC-SVG-20010904/DTD/svg10.dtd">
<svg version="1.0" xmlns="http://www.w3.org/2000/svg"
 width="4142.000000pt" height="4142.000000pt" viewBox="0 0 4142.000000 4142.000000"
 preserveAspectRatio="xMidYMid meet">
<metadata>
Created by potrace 1.14, written by Peter Selinger 2001-2017
</metadata>
<g transform="translate(0.000000,4142.000000) scale(0.100000,-0.100000)"
fill="#000000" stroke="none">
<path d="M25205 40392 c-31 -125 -63 -284 -72 -361 -3 -30 -9 -66 -14 -80 l-7
-26 -2 30 c-1 17 -3 41 -4 55 -2 14 -6 75 -10 135 -11 161 -43 181 -91 56 -15
-39 -28 -71 -29 -71 -2 0 -11 52 -21 115 -10 64 -19 114 -21 112 -5 -5 -51
-187 -68 -267 -26 -126 -46 -250 -52 -319 -3 -36 -7 -72 -10 -79 -22 -71 -23
-676 0 -797 2 -11 7 -47 10 -80 32 -281 128 -645 243 -919 220 -526 532 -1030
1047 -1696 96 -123 663 -837 836 -1050 46 -57 295 -389 341 -454 19 -27 47
-67 63 -90 63 -89 226 -337 293 -446 116 -191 320 -570 373 -694 98 -229 177
-492 214 -716 9 -52 18 -104 20 -115 2 -11 7 -58 11 -105 4 -47 9 -98 11 -115
7 -48 6 -414 -1 -480 -20 -199 -29 -263 -51 -381 -69 -379 -334 -915 -651
-1317 -206 -262 -480 -518 -737 -691 -145 -97 -202 -125 -353 -175 -220 -74
-277 -84 -468 -84 -183 0 -283 16 -450 69 -86 27 -345 152 -345 165 0 5 -5 9
-10 9 -25 0 -163 112 -261 211 -182 185 -286 382 -334 634 -6 35 -7 180 -1
210 2 11 7 40 11 65 21 131 103 289 197 382 57 57 93 76 153 84 41 6 47 4 74
-24 54 -59 75 -117 75 -217 1 -123 -31 -223 -107 -334 l-30 -44 76 56 c42 32
79 57 81 57 3 0 3 -9 1 -19 -4 -22 21 -61 39 -61 32 0 211 150 257 215 8 11
43 45 79 75 79 66 217 202 253 250 l27 35 0 -39 c0 -22 -9 -53 -21 -73 -12
-18 -18 -41 -15 -49 6 -15 9 -14 34 1 30 19 110 100 146 149 53 70 118 220
131 299 3 18 8 46 12 62 6 29 5 146 -2 235 -2 25 -4 71 -4 103 -1 42 -5 59
-16 64 -21 7 -22 6 -29 -47 -3 -25 -8 -56 -11 -70 -3 -14 -8 -45 -11 -70 -3
-25 -8 -54 -10 -65 -2 -10 -6 -37 -9 -60 -8 -54 -23 -101 -52 -157 -27 -56
-35 -61 -23 -15 18 63 21 93 21 202 0 117 -2 131 -28 240 -29 126 -110 260
-222 369 -55 52 -70 73 -65 88 9 30 -12 45 -64 46 -31 0 -68 10 -108 29 l-60
29 20 27 c44 59 -22 79 -169 50 -49 -9 -99 -11 -165 -6 -138 10 -356 4 -403
-12 -7 -2 -30 -7 -52 -10 -85 -12 -174 -38 -265 -78 -89 -38 -116 -51 -155
-76 -22 -13 -94 -50 -161 -81 -154 -71 -238 -121 -350 -208 -360 -280 -618
-723 -759 -1302 -27 -113 -70 -347 -81 -445 -3 -33 -8 -69 -10 -80 -2 -11 -6
-60 -10 -110 -3 -49 -7 -105 -9 -124 -6 -49 -7 -331 -1 -361 2 -14 7 -52 11
-85 13 -125 77 -486 134 -760 107 -520 131 -640 150 -755 12 -69 26 -150 31
-180 13 -78 34 -241 45 -355 13 -138 16 -220 17 -400 0 -283 -11 -1065 -16
-1105 -2 -19 -7 -86 -11 -148 -4 -63 -8 -124 -10 -135 -2 -12 -6 -51 -10 -87
-6 -69 -23 -218 -30 -260 -2 -14 -7 -45 -10 -70 -13 -94 -47 -279 -71 -390
-14 -63 -27 -126 -30 -139 -52 -251 -211 -696 -344 -960 -194 -388 -482 -770
-730 -971 -215 -174 -546 -408 -690 -489 -72 -41 -251 -102 -340 -116 -19 -3
-46 -7 -60 -10 -14 -2 -50 -6 -80 -9 -453 -43 -624 -19 -790 112 -72 57 -291
281 -348 357 -52 69 -137 228 -148 275 -3 14 -10 45 -16 70 -15 70 -10 198 12
285 41 160 166 370 336 565 97 110 380 387 529 515 32 28 63 55 69 60 6 6 38
33 71 60 33 28 62 53 65 56 3 3 68 56 145 118 269 217 429 352 635 534 230
204 510 484 635 637 20 25 44 54 54 65 41 49 140 186 180 250 24 39 51 81 60
95 95 142 207 448 235 642 25 168 25 465 0 591 -2 12 -7 42 -10 67 -5 39 -36
200 -49 254 -11 48 -52 161 -98 276 -199 491 -614 1150 -926 1473 -73 76 -180
164 -211 175 -8 2 -43 32 -76 64 -44 43 -60 65 -57 79 9 32 -23 66 -80 86 -70
23 -198 135 -193 167 7 46 -117 184 -289 321 -27 22 -56 46 -64 53 -7 7 -72
57 -145 111 -239 178 -381 261 -458 266 -26 1 -60 19 -119 60 -81 57 -82 57
-61 24 32 -51 122 -179 269 -385 73 -101 131 -184 130 -184 -2 0 -44 39 -93
86 -198 190 -382 312 -446 296 -13 -3 -16 -11 -12 -29 l6 -24 -28 18 c-16 10
-58 38 -93 62 l-63 43 43 -63 c23 -35 137 -196 253 -358 254 -354 285 -397
435 -621 302 -449 484 -812 594 -1180 113 -380 145 -566 145 -845 -1 -466
-132 -829 -414 -1151 -84 -95 -401 -417 -494 -499 -166 -149 -392 -334 -575
-471 -321 -241 -399 -296 -1050 -734 -566 -381 -679 -459 -925 -639 -568 -415
-1001 -812 -1347 -1236 l-33 -40 14 35 c17 43 12 77 -15 106 -27 29 -126 73
-182 80 -41 6 -46 4 -63 -21 -17 -26 -17 -30 0 -89 24 -83 31 -136 17 -136
-21 0 -48 89 -66 225 -3 22 -8 51 -10 65 -2 14 -7 50 -10 80 -4 30 -8 66 -10
80 -2 14 -6 59 -10 100 -3 41 -8 91 -10 110 -3 19 -7 76 -10 125 -3 50 -7 117
-10 150 -4 57 -9 149 -20 355 -3 52 -7 127 -10 165 -3 39 -7 97 -10 130 -4 57
-8 106 -21 220 -79 722 -254 1195 -619 1680 -46 60 -91 119 -102 130 -10 11
-36 43 -58 70 -129 160 -505 546 -630 646 -38 31 -88 66 -109 77 -35 19 -42
20 -66 7 -26 -13 -29 -12 -73 32 -26 25 -47 43 -47 40 0 -3 30 -77 66 -164 37
-87 79 -188 95 -226 l28 -67 -82 68 c-106 89 -199 151 -237 158 -24 5 -31 3
-38 -15 -7 -20 -11 -18 -67 33 -33 30 -61 53 -63 51 -3 -3 8 -30 39 -102 11
-24 19 -45 19 -47 0 -3 61 -147 135 -321 305 -714 402 -990 455 -1295 19 -108
19 -113 26 -170 3 -30 8 -66 11 -80 3 -14 7 -158 8 -320 3 -275 -1 -347 -30
-590 -22 -192 -89 -523 -160 -795 -71 -274 -149 -529 -332 -1090 -41 -126 -83
-257 -93 -290 -10 -33 -32 -105 -50 -160 -17 -55 -72 -239 -122 -410 -50 -170
-99 -339 -110 -375 -73 -248 -150 -638 -178 -905 -6 -55 -13 -116 -15 -135
-26 -224 -27 -942 0 -1078 2 -11 6 -55 10 -98 4 -43 15 -135 25 -203 10 -69
16 -139 15 -155 -2 -17 -6 -68 -9 -114 -20 -245 -61 -403 -115 -441 -26 -19
-28 -19 -68 -1 -142 63 -434 513 -595 915 -72 179 -156 450 -188 605 -5 25
-19 88 -30 140 -11 52 -23 111 -26 130 -3 19 -12 73 -20 120 -8 47 -17 103
-19 125 -3 22 -7 50 -9 62 -3 12 -8 57 -11 100 -4 43 -8 80 -10 83 -2 3 -6 46
-10 95 -4 50 -8 106 -10 125 -4 36 -13 173 -20 295 -5 79 -11 293 -20 655 -15
600 -41 941 -81 1036 -16 38 -21 40 -51 19 -23 -16 -23 -19 -9 138 2 20 2 37
0 37 -2 0 -13 -21 -25 -47 -47 -104 -111 -249 -121 -273 -9 -24 -10 -24 -20
-5 -16 31 -49 53 -70 47 -10 -2 -32 -21 -49 -41 l-31 -36 6 100 6 100 -20 -37
c-30 -57 -152 -340 -195 -453 -124 -332 -186 -540 -261 -880 -11 -49 -43 -245
-49 -300 -4 -33 -9 -71 -11 -85 -9 -52 -19 -270 -18 -400 0 -118 6 -244 19
-400 2 -25 6 -88 9 -140 20 -305 84 -703 167 -1034 90 -360 237 -801 397
-1196 33 -81 47 -130 57 -200 4 -25 11 -70 15 -100 11 -75 6 -226 -10 -278 -8
-24 -30 -60 -49 -79 l-36 -36 -73 6 c-107 8 -213 64 -472 248 -118 84 -222
153 -230 154 -9 0 -21 4 -28 9 -6 4 -12 2 -12 -3 0 -15 103 -254 155 -359 47
-96 46 -117 -7 -101 -38 11 -87 44 -153 105 -78 71 -110 94 -135 94 -17 0 -94
53 -130 90 -3 3 -13 11 -23 19 -20 15 -23 28 43 -141 109 -274 339 -665 565
-963 295 -388 715 -812 1175 -1185 30 -25 57 -47 60 -50 3 -3 25 -21 50 -40
25 -19 52 -40 60 -47 126 -101 222 -174 470 -359 287 -214 332 -247 575 -424
120 -87 608 -450 635 -473 8 -6 35 -28 60 -47 25 -19 52 -40 60 -47 8 -7 87
-69 175 -139 88 -70 174 -139 191 -153 17 -14 40 -33 50 -41 17 -13 153 -126
224 -186 389 -329 598 -521 920 -844 249 -249 283 -285 425 -445 335 -377 757
-977 1017 -1445 14 -25 35 -62 47 -83 166 -294 413 -836 489 -1078 140 -438
212 -930 215 -1459 2 -236 -8 -574 -18 -603 -2 -6 -6 -52 -10 -102 -3 -49 -10
-128 -16 -175 -5 -47 -12 -105 -15 -130 -11 -94 -15 -126 -19 -150 -5 -31 -12
-80 -20 -145 -4 -27 -8 -57 -10 -65 -3 -8 -7 -35 -10 -60 -3 -25 -12 -81 -20
-125 -21 -115 -45 -255 -51 -290 -10 -59 -143 -724 -179 -890 -110 -517 -265
-1339 -265 -1410 0 -20 12 -27 98 -55 53 -18 111 -43 127 -55 38 -29 176 -98
235 -118 345 -117 835 -424 1310 -821 142 -119 168 -143 365 -340 210 -211
420 -446 578 -646 93 -118 201 -258 272 -355 49 -66 92 -124 97 -130 6 -6 16
-1 28 15 15 18 22 22 28 12 14 -21 75 -62 92 -62 40 0 313 252 724 669 574
581 823 827 963 949 11 9 53 46 93 82 111 99 120 107 195 168 39 31 72 59 75
62 11 12 178 139 223 169 26 18 110 65 185 105 231 123 326 178 396 228 51 37
121 57 220 63 45 3 106 8 137 10 127 10 170 62 170 206 0 46 -2 93 -5 104 -4
20 -13 80 -22 140 -2 17 -7 41 -9 55 -3 14 -7 36 -10 50 -3 14 -12 59 -20 100
-8 41 -17 85 -20 98 -2 13 -6 31 -9 40 -3 9 -8 33 -11 52 -6 37 -86 403 -110
505 -8 33 -17 74 -20 92 -3 17 -12 58 -20 90 -8 32 -16 69 -19 83 -2 14 -16
79 -31 145 -46 211 -100 493 -109 575 -2 14 -6 39 -9 55 -7 35 -21 133 -33
225 -3 25 -7 56 -9 70 -2 14 -7 50 -10 80 -3 30 -7 71 -10 90 -5 43 -13 115
-20 195 -3 33 -7 83 -10 110 -4 45 -9 107 -20 280 -26 400 -21 1166 10 1485 4
36 9 85 11 110 2 25 9 81 15 125 6 44 12 91 14 105 9 63 26 164 30 169 2 4 6
27 10 51 3 25 13 72 22 105 8 33 16 67 18 75 16 81 96 335 150 475 184 476
501 1056 784 1430 73 97 233 297 258 323 7 7 29 34 50 59 21 26 45 54 53 63 8
9 42 47 75 85 305 350 843 893 1315 1325 198 181 532 478 609 540 23 19 53 44
65 55 13 11 38 34 57 50 149 132 617 505 954 759 681 515 1264 988 1475 1196
25 25 81 86 125 135 44 50 89 97 100 106 11 9 31 26 44 38 28 24 25 23 73 26
65 4 191 105 338 270 25 28 61 69 80 90 62 69 100 120 100 133 0 29 -43 7
-139 -73 -112 -93 -167 -133 -221 -160 l-35 -17 26 28 c14 16 36 40 48 54 13
14 74 88 135 165 185 230 328 442 467 690 59 105 67 116 104 128 45 16 66 15
111 -4 61 -24 80 6 46 72 -37 73 -11 130 79 168 57 25 79 55 51 70 -32 17
-106 16 -142 -2 -18 -10 -35 -15 -37 -13 -2 2 3 21 12 41 8 21 14 39 12 41 -3
3 -120 -89 -269 -213 -43 -35 -78 -61 -78 -58 0 3 11 32 24 65 14 33 19 57 13
53 -7 -3 -93 -72 -192 -153 -538 -436 -838 -667 -1090 -836 -82 -56 -160 -106
-173 -113 -23 -12 -23 -12 -9 21 54 125 142 330 159 367 11 24 58 135 105 245
47 111 91 215 98 231 25 57 78 180 90 210 7 17 32 74 55 129 203 480 375 975
479 1378 38 148 96 422 106 503 3 22 7 49 9 60 2 11 9 63 15 115 7 52 14 109
16 125 15 114 20 271 19 625 -1 520 -7 755 -21 772 -6 7 -14 45 -18 83 -9 98
-32 272 -50 379 -9 50 -18 100 -19 111 -25 143 -93 425 -143 585 -59 193 -58
182 -33 236 12 27 24 75 27 106 12 124 -71 222 -140 167 l-26 -20 -16 38 c-9
21 -23 55 -32 76 -8 20 -19 37 -24 37 -5 0 -7 -6 -4 -12 9 -28 30 -626 21
-618 -6 7 -99 250 -124 324 -15 45 -35 67 -49 52 -4 -3 -8 -48 -9 -99 -1 -50
-2 -94 -3 -97 -1 -3 -30 64 -66 149 -36 85 -67 157 -70 160 -4 3 -4 -19 -1
-49 26 -277 27 -1271 1 -1520 -2 -19 -6 -78 -9 -130 -7 -99 -23 -284 -31 -335
-2 -16 -9 -77 -15 -135 -6 -58 -13 -112 -15 -120 -2 -8 -6 -37 -10 -65 -3 -27
-10 -75 -15 -105 -5 -30 -12 -71 -15 -90 -125 -792 -406 -1621 -758 -2235
-127 -222 -390 -615 -525 -784 -105 -132 -390 -414 -547 -542 -185 -150 -265
-212 -265 -204 0 16 74 224 100 280 5 11 27 63 48 115 22 52 76 178 122 280
45 102 104 239 132 305 27 66 56 134 63 150 7 17 20 48 28 70 8 22 35 96 61
165 101 271 217 662 251 848 3 15 7 37 10 49 3 13 7 31 9 40 2 10 7 41 10 68
4 28 9 57 11 65 5 17 10 50 21 125 3 28 8 59 10 70 2 11 7 49 10 85 3 36 7 79
9 95 19 143 25 569 12 810 -13 233 -22 335 -52 570 -2 17 -7 50 -10 75 -3 25
-7 56 -9 70 -3 14 -10 61 -16 105 -6 44 -20 130 -30 190 -11 61 -22 126 -25
145 -3 19 -7 46 -10 60 -5 29 -13 85 -20 155 -3 28 -8 61 -10 75 -2 14 -6 50
-10 80 -3 30 -13 109 -21 175 -8 66 -17 140 -20 165 -2 25 -7 61 -9 80 -3 19
-7 58 -10 85 -3 28 -8 61 -10 75 -3 14 -7 51 -10 83 -4 32 -8 66 -10 75 -4 25
-17 141 -20 192 -2 25 -6 90 -10 145 -3 55 -8 111 -10 125 -2 14 -6 59 -10
100 -8 97 -13 155 -30 315 -2 22 -7 78 -10 125 -4 47 -8 101 -10 120 -2 19 -6
76 -10 125 -3 50 -7 110 -10 135 -2 25 -7 79 -10 120 -3 41 -8 91 -10 110 -3
19 -7 60 -11 90 -18 179 -64 343 -101 368 -20 13 -24 12 -47 -11 -13 -14 -30
-44 -37 -68 -18 -66 -16 -322 5 -549 2 -19 7 -75 11 -125 4 -49 9 -98 10 -107
2 -9 7 -52 10 -95 4 -43 9 -86 10 -95 2 -9 7 -48 10 -85 4 -37 8 -79 11 -93 2
-14 6 -54 9 -90 4 -36 8 -72 10 -80 2 -8 7 -49 10 -90 4 -41 9 -82 10 -91 2
-9 6 -40 10 -70 10 -92 14 -121 25 -204 5 -44 12 -100 15 -125 2 -25 9 -76 14
-115 12 -82 13 -125 1 -80 -6 24 -40 173 -55 244 -2 9 -15 70 -30 136 -86 396
-148 759 -171 1000 -3 39 -8 79 -10 90 -25 132 -24 816 1 947 3 11 7 46 10 77
12 103 46 280 69 358 56 184 186 475 186 415 0 -6 6 -12 14 -15 22 -9 123 96
253 263 35 44 138 187 196 271 104 150 122 205 75 230 -17 9 -12 18 63 102 45
51 128 142 185 202 56 61 115 124 130 140 15 17 73 80 130 140 145 156 225
247 220 252 -4 4 -243 -62 -356 -98 -323 -104 -981 -425 -1275 -622 -293 -197
-593 -467 -800 -721 -245 -301 -440 -651 -554 -995 -76 -227 -138 -479 -156
-631 -4 -30 -13 -69 -20 -86 -24 -58 -147 -219 -229 -299 -86 -85 -146 -123
-198 -128 -29 -2 -33 1 -45 43 -18 61 -25 145 -26 297 -1 120 9 374 17 453 2
19 7 73 11 120 4 47 8 99 9 115 11 108 40 278 58 335 56 179 106 285 209 437
138 205 313 429 454 579 5 6 53 57 105 114 177 192 773 783 1026 1016 193 179
213 197 454 414 113 101 212 191 221 199 9 9 67 63 129 121 448 417 897 875
1216 1240 21 25 41 47 44 50 3 3 41 48 85 100 44 52 82 97 85 100 3 3 30 37
60 75 30 39 57 72 61 75 3 3 58 75 121 160 259 349 407 591 504 830 19 47 39
94 43 105 16 36 49 139 66 200 23 87 54 209 59 239 3 15 7 34 10 44 3 9 7 35
11 57 3 22 10 65 15 95 5 30 12 74 15 98 3 23 8 61 11 85 4 23 8 56 9 72 1 17
6 77 11 135 11 128 11 648 1 785 -11 131 -36 372 -43 410 -6 27 -11 61 -18
116 -9 60 -13 84 -37 209 -11 58 -23 116 -25 130 -3 14 -10 45 -15 70 -6 25
-12 54 -15 65 -12 61 -93 342 -139 480 -169 507 -361 880 -639 1236 -258 331
-456 536 -1777 1845 -264 262 -574 578 -735 750 -22 23 -89 95 -151 160 -61
66 -120 129 -130 140 -10 12 -54 61 -99 110 -44 49 -98 109 -120 134 -21 25
-42 47 -45 50 -3 3 -39 43 -79 90 -40 47 -84 99 -98 115 -57 65 -200 245 -245
311 -42 59 -248 381 -308 480 -26 42 -120 313 -175 502 -57 198 -124 488 -124
538 0 22 13 93 30 158 16 65 27 123 24 127 -15 25 -38 4 -75 -71 l-17 -35 -10
40 c-6 22 -13 60 -17 85 -15 111 -18 131 -25 135 -4 3 -20 -44 -35 -103z m40
-17308 c13 -45 27 -101 31 -125 3 -24 8 -55 10 -69 3 -14 6 -119 9 -234 3
-115 7 -211 9 -213 2 -2 39 40 82 94 43 54 89 109 102 123 12 14 64 78 115
142 50 64 95 117 100 117 4 1 7 -27 8 -61 0 -35 2 -70 3 -78 2 -8 6 -62 10
-120 3 -58 11 -141 16 -185 5 -44 12 -107 15 -140 3 -33 7 -76 10 -95 9 -77
15 -129 25 -220 15 -133 20 -175 30 -255 5 -38 12 -97 15 -130 9 -92 15 -147
20 -180 2 -16 7 -68 10 -115 4 -47 8 -95 10 -108 19 -115 28 -788 13 -962 -4
-47 -8 -94 -8 -105 -1 -18 -2 -18 -10 3 -20 48 -91 4 -250 -157 -110 -111
-171 -181 -299 -341 -50 -63 -96 -121 -103 -129 -44 -54 -165 -246 -199 -318
-22 -49 -48 -96 -57 -107 -14 -15 -82 -56 -102 -61 -3 -1 -12 -5 -20 -8 -36
-15 -133 -25 -230 -25 -323 0 -552 96 -733 306 -49 57 -95 138 -176 304 -82
170 -110 212 -137 201 -57 -22 -41 -249 30 -406 54 -123 167 -264 281 -352 74
-58 76 -61 10 -25 -254 138 -425 383 -486 695 -14 75 -19 324 -7 416 23 177
103 399 194 536 45 68 140 170 174 188 15 8 49 17 76 20 27 3 60 8 74 11 l25
4 -25 -20 c-198 -165 -392 -450 -459 -675 -37 -123 -43 -225 -13 -225 13 0 68
55 109 110 23 30 97 143 165 250 156 248 170 267 247 351 104 113 211 152 327
120 28 -7 56 -27 87 -59 66 -71 79 -104 85 -204 4 -84 3 -92 -27 -151 -17 -34
-48 -81 -68 -105 -37 -42 -40 -43 -158 -66 l-120 -23 53 -19 c28 -10 52 -22
52 -25 0 -16 -298 -95 -382 -102 -32 -2 -8 -14 119 -60 303 -108 413 -136 544
-141 162 -5 301 36 346 103 24 35 21 56 -11 82 -19 16 -18 16 20 23 201 37
431 311 540 643 105 321 109 595 17 1183 -14 91 -27 179 -30 195 -4 26 -52
290 -98 540 -51 277 -106 618 -104 652 1 28 68 -122 94 -213z m-9357 -236
c-53 -65 -140 -202 -195 -308 -238 -458 -311 -1013 -218 -1656 13 -91 21 -173
18 -182 -3 -9 -15 -27 -26 -39 -20 -22 -42 -102 -52 -183 -3 -25 -8 -63 -10
-85 -3 -22 -7 -89 -10 -150 -8 -180 -21 -338 -30 -395 -3 -14 -7 -41 -10 -60
-18 -111 -60 -233 -79 -227 -5 2 -14 17 -19 33 -16 56 -11 556 8 744 2 19 6
78 10 130 4 52 9 109 10 125 2 17 6 68 9 115 4 47 9 101 11 120 2 19 6 69 10
110 3 41 8 86 10 100 2 14 7 59 10 100 4 41 8 86 10 100 3 22 6 50 20 180 1
14 5 51 9 83 3 31 9 83 12 115 3 31 8 75 11 97 3 22 6 54 8 70 3 40 16 144 20
175 2 14 7 50 10 80 3 30 10 83 16 118 5 34 12 84 15 110 3 26 14 94 25 152
54 291 98 398 157 383 74 -18 149 0 222 53 25 18 47 33 49 33 2 1 -12 -18 -31
-41z m9968 -2845 c-57 -374 -142 -588 -320 -798 -83 -98 -270 -255 -305 -255
-23 0 11 111 68 225 32 64 167 283 182 295 34 27 314 481 355 576 16 35 30 62
31 60 2 -2 -3 -48 -11 -103z m-13268 -1680 c31 -32 100 -107 152 -167 197
-227 268 -273 366 -236 41 16 135 88 170 130 l30 38 18 -62 c87 -306 170 -519
315 -810 l106 -212 -38 0 c-77 -1 -186 -69 -187 -118 0 -22 -28 6 -147 149
-42 50 -85 101 -97 115 -87 102 -264 353 -408 580 -113 177 -362 650 -343 650
3 0 31 -26 63 -57z m-759 -1141 c53 -124 236 -512 360 -760 39 -79 65 -140 58
-136 -43 26 -219 147 -379 261 l-187 134 5 67 c7 98 23 168 44 195 24 31 40
70 47 120 3 21 6 46 8 55 2 9 4 41 4 70 1 28 4 52 9 52 4 0 18 -26 31 -58z
m15165 -948 c-2 -95 1 -89 -82 -149 l-53 -38 68 137 c37 75 68 136 68 136 0 0
-1 -39 -1 -86z m1827 -207 c-13 -13 -15 1 -4 30 7 17 8 17 11 -1 2 -10 -1 -23
-7 -29z m-4661 -1906 c0 -10 -6 -21 -14 -24 -11 -4 -11 -1 -2 19 13 29 16 30
16 5z m-14 -263 c-37 -440 -127 -782 -285 -1092 -32 -61 -168 -284 -303 -496
-380 -598 -470 -740 -700 -1110 -118 -190 -228 -367 -245 -395 -18 -27 -55
-89 -83 -137 -28 -49 -54 -88 -56 -88 -8 0 4 150 21 260 2 19 8 58 11 85 3 28
8 59 10 70 2 11 6 40 10 65 13 107 59 313 91 410 19 58 60 157 91 220 58 120
191 353 204 358 4 2 8 8 8 13 0 8 86 144 179 283 25 38 51 76 56 85 6 10 78
117 160 240 83 122 223 333 313 469 89 136 166 252 170 257 7 10 176 282 223
360 30 50 73 127 101 183 12 23 24 42 26 42 3 0 1 -37 -2 -82z m-6995 -21 l26
-44 -31 16 c-17 9 -33 17 -35 18 -2 2 -6 24 -8 50 -5 53 -8 56 48 -40z m402
-637 c130 -189 282 -399 599 -830 336 -457 403 -568 483 -799 80 -232 121
-448 150 -791 l7 -75 -70 120 c-60 104 -252 422 -361 598 -20 32 -40 66 -46
75 -5 9 -66 107 -135 217 -69 110 -129 207 -135 217 -5 9 -51 86 -101 170 -51
84 -101 169 -112 188 -10 19 -34 60 -52 90 -18 30 -36 64 -41 75 -5 11 -21 40
-35 65 -58 102 -227 433 -278 548 -57 125 -114 276 -122 322 -3 14 -7 32 -9
40 -3 8 -7 33 -11 55 -6 37 -42 167 -59 210 -4 11 41 -56 100 -150 59 -93 161
-249 228 -345z"/>
<path d="M25493 22312 c-27 -17 -33 -66 -28 -255 2 -106 6 -214 10 -242 34
-296 39 -794 9 -962 -51 -287 -119 -432 -286 -612 -106 -115 -127 -143 -146
-198 -9 -27 -8 -36 4 -48 18 -18 33 -19 69 -5 65 25 230 218 319 374 39 68
106 244 120 316 2 14 9 48 15 75 6 28 13 61 15 75 2 14 7 36 10 50 3 14 7 43
10 65 3 22 7 58 10 80 3 22 8 56 11 75 23 168 23 640 1 780 -2 14 -7 46 -10
71 -15 107 -38 200 -68 279 -24 63 -48 93 -65 82z"/>
<path d="M25433 39923 c-14 -22 -18 -47 -17 -123 1 -104 3 -120 23 -144 18
-22 44 -20 66 4 10 11 15 20 11 20 -4 0 -2 9 4 20 11 21 15 97 6 137 -8 40
-38 93 -57 104 -15 7 -22 4 -36 -18z"/>
<path d="M30084 21842 c-16 -11 -24 -39 -30 -112 -12 -128 29 -218 78 -173 43
38 52 125 23 214 -22 66 -45 89 -71 71z"/>
<path d="M30185 21280 c-15 -17 -19 -38 -19 -118 0 -112 7 -147 33 -162 89
-47 116 187 33 283 -19 22 -25 21 -47 -3z"/>
<path d="M36593 5692 c-21 -13 -33 -63 -34 -136 -1 -85 15 -151 38 -160 24
-10 60 19 73 60 30 89 -28 266 -77 236z"/>
<path d="M36710 4966 c-23 -28 -33 -313 -16 -431 8 -50 28 -74 50 -56 54 45
57 424 4 488 -14 17 -23 16 -38 -1z"/>
</g>
</svg>
